<?xml version="1.0" standalone="no"?>
<svg version="1.1" id="Layer_1" xmlns="http://www.w3.org/2000/svg" xmlns:xlink="http://www.w3.org/1999/xlink" x="0px" y="0px" width="595.28px" height="595.28px" viewBox="0 0 595.28 595.28" enable-background="new 0 0 595.28 595.28" xml:space="preserve">
<path id="color_x5F_7" fill="#240C0D" d="M396.118,241.972c0.383,0.292,0.315,1.043-0.157,1.673
	c-0.473,0.628-1.163,0.904-1.549,0.608c-0.38-0.292-0.313-1.043,0.158-1.675C395.04,241.951,395.732,241.677,396.118,241.972z
	 M412.889,224.311c-2.814-2.212-6.501-2.08-9.849-4.686c-0.762-0.599-1.341-1.069-1.782-1.448c-2.256-1.934-1.059-1.533-3.72-3.623
	c-0.132-0.104-0.266-0.21-0.397-0.306l-0.037-0.03c-3.82-2.508-7.058-3.401-9.788-3.31c-5.033,0.169-8.342,3.698-10.376,6.71
	c-2.451,3.629-3.104,8.882-2.833,11.106c0.077,0.599,0.17,1.188,0.285,1.765c0.041,0.203,0.104,0.392,0.15,0.591
	c0.264,1.12,0.593,2.199,1.01,3.2c0.001,0.002,0.002,0.004,0.003,0.006c0.006,0.027,0.015,0.051,0.033,0.077
	c1.028,2.461,2.489,4.514,4.195,5.957c0.021,0.017,0.039,0.037,0.06,0.053c0.918,0.774,1.898,1.368,2.925,1.758
	c-0.44-0.508-0.79-1.09-1.033-1.722c-0.262-0.659-0.395-1.373-0.39-2.116c0.004-1.701,0.958-3.27,2.707-3.552
	c1.205-0.193,2.352,0.213,3.264,0.941c0.862,0.689,1.516,1.666,1.792,2.715c0.299,1.129,0.22,2.33-0.119,3.466
	c2.818-1.4,4.938-4.498,5.879-8.412c-0.532-0.744,6.485,4.417,7.033,4.848l0.08,0.063l0.006,0.005
	c3.805,2.914,9.286,2.187,12.299-1.648C417.318,232.86,416.698,227.302,412.889,224.311z M172.636,358.639
	c-0.383,0.292-0.315,1.043,0.157,1.673c0.473,0.629,1.163,0.905,1.548,0.608c0.38-0.292,0.313-1.042-0.158-1.674
	C173.714,358.617,173.021,358.344,172.636,358.639z M217.333,346.222c-1.497-4.49-4.86-3.754-8.693-3.099
	c-1.289,0.221-2.631,0.432-3.974,0.432c-4.913,0-3.615-4.529-7.026-10.455c-0.292-0.506-0.606-1.02-0.974-1.545
	c-3.453-4.933-10.187-4.391-13.458-3.774c-0.402-0.082-0.816-0.145-1.244-0.179c-2.838-0.231-6.246,0.613-10.313,3.283l-0.038,0.029
	c-0.131,0.096-0.243,0.238-0.397,0.306c-16.15,7.136-12.956,18.289-8.645,22.476c1.53,1.486,3.2,2.103,4.196,1.339l0.006-0.005
	l0.08-0.063c0.155-0.122,0.839-0.631,1.717-1.271c2.213-1.618,5.698-4.109,5.316-3.576c0.312,1.296,0.764,2.491,1.316,3.576
	c1.116,2.192,2.677,3.9,4.563,4.836c-0.339-1.137-0.417-2.337-0.119-3.466c0.126-0.479,0.341-0.94,0.608-1.37
	c0.429-0.691,1.019-1.282,1.709-1.699c0.812-0.491,1.753-0.745,2.738-0.587c0.481,0.077,0.895,0.259,1.252,0.507l0.157,1.779
	l0.24,2.715c0,0-0.291,0.723-0.22,2.187c-0.052,0.065-0.092,0.14-0.146,0.202c0.051-0.02,0.101-0.046,0.152-0.066
	c0.078,1.255,0.42,3.022,1.407,5.329c0.435,1.019,0.898,1.686,1.37,2.144c0.315,0.307,0.634,0.517,0.953,0.667
	c1.629,0.768,3.236-0.005,4.132,2.683c0.317,0.952,0.48,2.133,0.55,3.377c0.221,3.98-0.55,8.623-0.55,8.623l2.201-2.201l1.439-1.439
	l0.428-0.428l2.563-2.563l0.584-0.584l7.424-7.424l6.327-6.327l2.874-2.874l0.826-0.825c0,0,0.171-1.214,0.077-3.193
	C218.653,351.787,218.315,349.167,217.333,346.222z"></path>
<path id="color_x5F_6" fill="#EFA424" d="M466.456,248.013l0.091,0.01l-0.813,2.345L466.456,248.013z M433.373,244.196l-7.93,25.839
	l0.896,0.275l24.607,16.411l12.003-39.114l-30.116-3.475L433.373,244.196z M102.298,364.679l-0.09,0.011l0.806,2.322
	L102.298,364.679z M142.415,386.977l0.896-0.275l-7.929-25.839l0.539-0.063l-30.116,3.475l12.003,39.114L142.415,386.977z
	 M505.595,267.205l-9.947-1.445l-4.449-9.014l-4.448,9.014l-9.948,1.445l7.198,7.017l-1.699,9.907l8.897-4.678l8.897,4.678
	l-1.699-9.907L505.595,267.205z M128.498,419.032c-10.774,0-19.966,3.943-25.882,11.103c-0.908,1.1-0.753,2.727,0.346,3.635
	c0.481,0.398,1.064,0.592,1.643,0.592c0.743,0,1.481-0.32,1.992-0.938c4.987-6.037,12.561-9.229,21.901-9.229
	c9.282,0,16.563,5.896,20.077,9.41c1.009,1.008,2.643,1.008,3.651,0c1.008-1.009,1.008-2.643,0-3.651
	C148.147,425.875,139.64,419.032,128.498,419.032z M128,432.222c-5.779,0-10.728,2.138-13.935,6.021
	c-0.908,1.1-0.753,2.727,0.347,3.635c0.481,0.397,1.063,0.591,1.642,0.591c0.744,0,1.481-0.319,1.992-0.938
	c2.83-3.427,6.975-4.146,9.954-4.146c4.176,0,7.51,2.711,9.125,4.326c1.009,1.009,2.643,1.01,3.651,0.001
	c1.008-1.009,1.008-2.643,0-3.651C137.012,434.296,132.475,432.222,128,432.222z M127.503,445.814c-2.405,0-4.356,1.95-4.356,4.355
	c0,2.406,1.951,4.356,4.356,4.356c2.406,0,4.356-1.95,4.356-4.356C131.86,447.765,129.91,445.814,127.503,445.814z"></path>
<path id="color_x5F_5" fill="#FFD2BB" d="M366.432,249.729c0.697,0.762,1.373,1.603,2.012,2.543c0.931,1.373,1.818,3.468,3.13,7.397
	l0.066-0.085l8.016-10.376c1.631,3.006,3.54,5.52,5.333,6.929c0.841,0.661,1.609,1.042,2.327,1.191
	c3.079,0.645,5.199-2.989,7.883-7.291c0.534,0.276,1.05,0.469,1.474,0.532c1.892,0.282,1.297-2.004,1.63-4.244
	c0.049-0.328,0.059-0.65,0.043-0.963c0.111-0.148,0.224-0.295,0.339-0.442c1.601-2.037,2.688-4.284,3.297-6.557l-0.08-0.063
	c-0.548-0.431-7.565-5.591-7.033-4.848c-0.941,3.914-3.061,7.012-5.879,8.412c0.339-1.136,0.418-2.337,0.119-3.466
	c-0.276-1.049-0.93-2.025-1.792-2.715c-0.912-0.729-2.059-1.135-3.264-0.941c-1.749,0.282-2.703,1.851-2.707,3.552
	c-0.005,0.743,0.128,1.457,0.39,2.116c0.243,0.632,0.593,1.214,1.033,1.722c-1.026-0.39-2.007-0.984-2.925-1.758
	c-0.021-0.017-0.039-0.036-0.06-0.053c-1.706-1.443-3.167-3.495-4.195-5.957c-0.019-0.026-0.027-0.05-0.033-0.077
	c-0.001-0.002-0.002-0.004-0.003-0.006c-0.417-1.001-0.746-2.081-1.01-3.2l-2.902,1.313l-7.938,3.589L366,247.552L366.432,249.729z
	 M394.57,242.579c0.47-0.628,1.162-0.902,1.548-0.607c0.383,0.292,0.315,1.043-0.157,1.673c-0.473,0.628-1.163,0.904-1.549,0.608
	C394.032,243.962,394.099,243.211,394.57,242.579z M418.873,277.119c-1.864,3.816-5.711,6.019-9.393,6.812
	c-1.592,11.531-14.438,32.959-22.165,39.929c-0.637,0.574-1.239,1.054-1.797,1.418c-1.651,1.078-4.827,0.073-7.303-2.195
	c-2.161-1.343-4.38-3.383-6.576-5.916c-4.987-5.752-9.861-14.039-13.709-22.465c-2.005-4.391-3.73-8.817-5.047-12.941
	c0.405,1.034,0.657,1.623,0.657,1.623l5.279-1.67l1.819-0.575l11-3.478l4.546-1.438c3.623,7.171,7.55,19.92,7.55,19.92
	s0.433,1.606,0.988,4.046c0.886-1.014,1.76-1.996,2.592-2.923c3.092-3.442,5.562-6.05,5.562-6.05s3.395-4.231,7.104-7.947
	c0.356-0.357,0.715-0.709,1.075-1.052c-0.063-0.103-0.124-0.205-0.173-0.314c-0.057-0.125-0.087-0.314-0.098-0.548
	c-0.129-2.774,2.86-12.537,5.869-14.188c0.512-0.282,1.344-0.152,2.276,0.172c2.452,0.855,5.616,3.104,5.616,3.104
	s0.213,0.081,0.541,0.234C416.584,271.374,420.581,273.622,418.873,277.119z M194.55,372.932l-4.682-6.06
	c1.629,0.768,3.236-0.005,4.132,2.683C194.317,370.507,194.48,371.688,194.55,372.932z M170.409,362.028
	c-0.016,0.313-0.005,0.635,0.043,0.963c0.334,2.239-0.261,4.526,1.63,4.244c0.424-0.063,0.939-0.256,1.474-0.532
	c2.833,4.541,5.041,8.323,8.408,7.129c0.566-0.201,1.161-0.526,1.801-1.029c1.727-1.356,3.56-3.739,5.149-6.598
	c-0.472-0.458-0.935-1.125-1.37-2.144c-0.986-2.307-1.329-4.074-1.407-5.329c-0.051,0.021-0.101,0.047-0.152,0.066
	c0.055-0.063,0.095-0.137,0.146-0.202c-0.071-1.464,0.22-2.187,0.22-2.187l-0.24-2.715l-0.157-1.779
	c-0.357-0.248-0.771-0.43-1.252-0.507c-0.985-0.158-1.926,0.096-2.738,0.587c-0.691,0.417-1.28,1.008-1.709,1.699
	c-0.267,0.43-0.482,0.891-0.608,1.37c-0.298,1.129-0.22,2.329,0.119,3.466c-1.885-0.936-3.446-2.644-4.563-4.836
	c-0.553-1.085-1.004-2.28-1.316-3.576c0.381-0.533-3.103,1.958-5.316,3.576c-0.877,0.641-1.562,1.149-1.717,1.271l-0.08,0.063
	c0.609,2.272,1.696,4.52,3.297,6.557C170.185,361.732,170.297,361.88,170.409,362.028z M174.341,360.92
	c-0.385,0.297-1.076,0.021-1.548-0.608c-0.473-0.63-0.54-1.381-0.157-1.673c0.386-0.295,1.078-0.021,1.547,0.607
	C174.655,359.878,174.722,360.628,174.341,360.92z M215.212,400.049c0,0,0.253-0.592,0.66-1.63
	c-1.316,4.127-3.043,8.556-5.049,12.949c-0.05,0.11-0.1,0.221-0.15,0.331c-3.687,8.015-8.294,15.874-13.032,21.515
	c-2.369,2.819-4.77,5.086-7.104,6.536c-2.475,2.268-5.649,3.271-7.3,2.193c-0.4-0.261-0.829-0.598-1.271-0.969
	c-7.653-6.428-21.062-28.578-22.691-40.377c-3.682-0.793-7.529-2.995-9.393-6.812c-1.708-3.497,2.29-5.745,3.786-6.442
	c0.329-0.153,0.541-0.234,0.541-0.234s3.164-2.25,5.615-3.104c0.933-0.325,1.765-0.455,2.276-0.173
	c3.008,1.65,5.997,11.412,5.869,14.188c-0.011,0.233-0.041,0.424-0.097,0.549c-0.049,0.108-0.109,0.212-0.172,0.313
	c0.36,0.343,0.719,0.694,1.075,1.052c3.709,3.715,7.104,7.947,7.104,7.947s2.754,2.908,6.087,6.637
	c1.318,1.476,2.724,3.076,4.09,4.68c0.372-1.026,0.613-1.643,0.613-1.643s3.28-14.722,6.606-24.442l4.367,1.381l11,3.478
	l1.293,0.409L215.212,400.049z"></path>
<path id="color_x5F_4" fill="#ffffff" d="M519.895,191.03c0,1.242-0.123,2.458-0.302,3.649H387.315v-51.465
	c0-1.741-0.348-3.398-0.969-4.915c3.521-1.731,7.487-2.709,11.688-2.709c10.699,0,19.884,6.327,23.978,15.387
	c1.619-18.4,17.251-32.845,36.322-32.845c20.149,0,36.483,16.116,36.483,35.99c0,4.319-0.81,8.442-2.227,12.28
	c0.733-0.062,1.475-0.11,2.227-0.11C508.663,166.292,519.895,177.368,519.895,191.03z M166.987,309.993
	c-4.094-9.061-13.278-15.388-23.978-15.388c-14.501,0-26.255,11.6-26.255,25.903c0,2.085,0.275,4.104,0.749,6.05
	c-6.339-4.553-14.111-7.268-22.548-7.268c-20.019,0-36.44,15.118-38.225,34.404h105.84c-4.311-4.187-7.505-15.34,8.645-22.476
	c0.154-0.067,0.266-0.21,0.397-0.306l0.038-0.029c4.067-2.67,7.476-3.515,10.313-3.283v-43.635
	C173.619,289.929,167.929,299.288,166.987,309.993z M85.928,261.05c0-1.747,0.584-3.387,1.644-4.62
	c1.225-1.425,2.947-2.178,4.981-2.178c4.349,0,6.625,3.42,6.625,6.798c0,1.747-0.584,3.387-1.644,4.62
	c-1.225,1.425-2.947,2.177-4.981,2.177C88.204,267.848,85.928,264.428,85.928,261.05z M88.928,261.05
	c0,1.411,0.764,3.798,3.625,3.798c1.149,0,2.06-0.381,2.706-1.133c0.584-0.679,0.919-1.65,0.919-2.665
	c0-1.411-0.764-3.798-3.625-3.798c-1.149,0-2.06,0.381-2.706,1.133C89.263,259.065,88.928,260.036,88.928,261.05z M142.773,178.233
	h3v-5.887h5.887v-3h-5.887v-5.887h-3v5.887h-5.887v3h5.887V178.233z M149.24,239.636h-22.158l11.079-19.07L149.24,239.636z
	 M132.294,236.636h11.733l-5.867-10.098L132.294,236.636z M431.271,426.632c0,1.746-0.584,3.388-1.645,4.62
	c-1.225,1.425-2.947,2.178-4.98,2.178c-4.35,0-6.625-3.42-6.625-6.798c0-1.746,0.584-3.388,1.645-4.62
	c1.225-1.425,2.947-2.178,4.98-2.178C428.996,419.834,431.271,423.254,431.271,426.632z M428.271,426.632
	c0-1.41-0.764-3.798-3.625-3.798c-1.149,0-2.06,0.382-2.706,1.134c-0.584,0.679-0.919,1.649-0.919,2.664
	c0,1.41,0.764,3.798,3.625,3.798c1.149,0,2.06-0.382,2.706-1.134C427.937,428.617,428.271,427.646,428.271,426.632z
	 M486.144,343.564h-3v5.887h-5.887v3h5.887v5.887h3v-5.887h5.887v-3h-5.887V343.564z M424.646,342.06l11.079,19.07h-22.158
	L424.646,342.06z M430.513,358.13l-5.866-10.098l-5.866,10.098H430.513z"></path>
<path id="color_x5F_3" fill="#4367e8" d="M384.988,256.137c0.841,0.661,1.609,1.042,2.327,1.191v39.937
	c-0.832,0.927-1.706,1.909-2.592,2.923c-0.556-2.439-0.988-4.046-0.988-4.046s-3.927-12.749-7.55-19.92l0.465-0.146
	c-2.257-7.475-3.812-12.6-5.011-16.208v-0.283l8.016-10.376C381.286,252.214,383.195,254.728,384.988,256.137z M186.667,417.555
	c0,0,3.28-14.722,6.606-24.442l-1.17-0.37c1.725-5.713,3.039-10.048,4.098-13.389L194,381.555c0,0,0.771-4.643,0.55-8.623
	l-4.682-6.06c-0.319-0.15-0.638-0.36-0.953-0.667c-1.589,2.858-3.422,5.241-5.149,6.598c-0.64,0.503-1.235,0.828-1.801,1.029v40.686
	c1.318,1.476,2.724,3.076,4.09,4.68C186.426,418.171,186.667,417.555,186.667,417.555z M378.216,323.082
	c-2.161-1.343-4.38-3.383-6.576-5.916v120.056h-174v-4.008c-2.369,2.819-4.77,5.086-7.104,6.536c-2.475,2.268-5.649,3.271-7.3,2.193
	c-0.4-0.261-0.829-0.598-1.271-0.969v14.534c0,7.176,5.817,12.993,12.993,12.993h179.366c7.176,0,12.992-5.817,12.992-12.993
	V323.859c-0.637,0.574-1.239,1.054-1.797,1.418C383.867,326.355,380.691,325.351,378.216,323.082z M386.347,138.3
	c-1.938-4.738-6.588-8.078-12.023-8.078H194.958c-7.176,0-12.993,5.817-12.993,12.993v140.752v43.635
	c0.428,0.034,0.842,0.097,1.244,0.179c3.271-0.616,10.005-1.158,13.458,3.774c0.368,0.525,0.682,1.039,0.974,1.545v-55.513V149.222
	h174v17.708v27.75v37.714l2.902-1.313c-0.047-0.199-0.109-0.389-0.15-0.591c-0.115-0.578-0.208-1.167-0.285-1.765
	c-0.271-2.225,0.382-7.478,2.833-11.106c2.034-3.012,5.343-6.541,10.376-6.71V194.68v-51.465
	C387.315,141.474,386.968,139.816,386.347,138.3z M302.64,245.143c0,9.94-8.059,17.999-18,17.999
	c-9.94,0-17.999-8.059-17.999-17.999c0-9.941,8.059-18,17.999-18C294.581,227.143,302.64,235.201,302.64,245.143z M294.023,245.142
	l-7.383-4.262l-7.383-4.263v8.525v8.525l7.383-4.262L294.023,245.142z M302.64,359.143c0,9.94-8.059,17.999-18,17.999
	c-9.94,0-17.999-8.059-17.999-17.999c0-9.941,8.059-18,17.999-18C294.581,341.143,302.64,349.201,302.64,359.143z M294.023,359.143
	l-7.383-4.263l-7.383-4.263v8.525v8.524l7.383-4.263L294.023,359.143z M217.5,306.642c1.933,0,3.5-1.566,3.5-3.5
	c0-1.933-1.567-3.5-3.5-3.5s-3.5,1.567-3.5,3.5C214,305.075,215.567,306.642,217.5,306.642z M232,301.703l-1.368-2.772l-1.368,2.772
	l-3.06,0.445l2.214,2.157l-0.523,3.048l2.737-1.438l2.737,1.438l-0.523-3.048l2.214-2.157L232,301.703z M217.5,426.143
	c1.933,0,3.5-1.567,3.5-3.5c0-1.934-1.567-3.5-3.5-3.5s-3.5,1.566-3.5,3.5C214,424.575,215.567,426.143,217.5,426.143z
	 M228.418,423.806l-0.523,3.048l2.737-1.438l2.737,1.438l-0.523-3.048l2.214-2.157l-3.06-0.445l-1.368-2.772l-1.368,2.772
	l-3.06,0.445L228.418,423.806z M241,304.222c0,0.552,0.448,1,1,1h49.5c0.552,0,1-0.448,1-1s-0.448-1-1-1H242
	C241.448,303.222,241,303.67,241,304.222z M242,424.722h49.5c0.552,0,1-0.448,1-1s-0.448-1-1-1H242c-0.552,0-1,0.448-1,1
	S241.448,424.722,242,424.722z"></path>
<path id="color_x5F_2" fill="#FBC02D" d="M208.64,277.534v17.167h26.001h76.868c0.221-9.64,2.58-21.239,9.83-33.25
	c9.36-15.51,31.36-23.06,39.3-25.35v-40.52h-152V277.534z M284.64,227.143c9.941,0,18,8.059,18,18c0,9.94-8.059,17.999-18,17.999
	c-9.94,0-17.999-8.059-17.999-17.999C266.641,235.201,274.699,227.143,284.64,227.143z M208.64,190.407h103.773h48.227v-28.636
	v-2.049h-152V190.407z M216.14,168.722h101.003v9.83v4.356h-2.303h-98.7V168.722z M208.64,312.584v30.539
	c3.833-0.655,7.197-1.392,8.693,3.099c0.982,2.945,1.319,5.565,1.41,7.474c0.094,1.979-0.077,3.193-0.077,3.193l-0.826,0.825
	c8.287,5.631,17.624,15.413,18.826,27.841c2,20.667,20.357,16.174,20.577,25.813h-46.421c-0.05,0.11-0.1,0.221-0.15,0.331H360.64
	v-99.115H239.778H208.64z M284.64,341.143c9.941,0,18,8.059,18,18c0,9.94-8.059,17.999-18,17.999
	c-9.94,0-17.999-8.059-17.999-17.999C266.641,349.201,274.699,341.143,284.64,341.143z M490.702,406.26v10.717h-23.886V406.26
	c0-6.596,5.348-11.943,11.942-11.943C485.355,394.316,490.702,399.664,490.702,406.26z M471.717,383.598
	c0-3.89,3.152-7.043,7.044-7.043c3.888,0,7.042,3.153,7.042,7.043c0,3.891-3.154,7.045-7.042,7.045
	C474.869,390.643,471.717,387.488,471.717,383.598z M512.519,409.02v7.957h-17.733v-7.957c0-4.896,3.971-8.867,8.867-8.867
	C508.548,400.152,512.519,404.123,512.519,409.02z M498.423,392.195c0-2.888,2.342-5.229,5.229-5.229
	c2.889,0,5.229,2.342,5.229,5.229c0,2.889-2.34,5.229-5.229,5.229C500.765,397.424,498.423,395.084,498.423,392.195z
	 M463.113,409.02v7.957h-17.732v-7.957c0-4.896,3.969-8.867,8.867-8.867C459.144,400.152,463.113,404.123,463.113,409.02z
	 M449.019,392.195c0-2.888,2.342-5.229,5.229-5.229c2.887,0,5.229,2.342,5.229,5.229c0,2.889-2.342,5.229-5.229,5.229
	C451.36,397.424,449.019,395.084,449.019,392.195z"></path>
<path id="color_x5F_1" fill="#0984E3" d="M400.883,281.901c0.049,0.109,0.109,0.212,0.173,0.314
	c-0.36,0.343-0.719,0.694-1.075,1.052c0.06-0.439,0.202-0.876,0.438-1.283l0.366-0.631
	C400.796,281.587,400.826,281.776,400.883,281.901z M432.765,244.358l-5.427-1.666c-0.009-0.005-0.016-0.013-0.024-0.018
	c-0.477-0.277-0.992-0.416-1.507-0.453l-0.239-0.073c-5.327-1.635-10.972,1.359-12.605,6.686l-1.912,6.229
	c-0.797,2.596-0.487,5.265,0.649,7.511l-2.769,4.763c2.452,0.855,5.616,3.104,5.616,3.104s0.213,0.081,0.541,0.234l1.904-3.277
	c0.244,0.096,0.488,0.192,0.743,0.27l7.708,2.366v-0.001l7.93-25.839l-0.539-0.063L432.765,244.358z M465.352,245.701
	c-0.918-0.281-1.889,0.233-2.169,1.149l-0.232,0.757l-12.003,39.114l-0.217,0.707c-0.281,0.916,0.233,1.887,1.149,2.169
	c0.916,0.28,1.888-0.235,2.168-1.15l11.686-38.079l0.723-2.355l0.044-0.144C466.781,246.953,466.267,245.982,465.352,245.701z
	 M371.573,259.669c-1.312-3.929-2.199-6.024-3.13-7.397c-0.639-0.941-1.314-1.781-2.012-2.543L366,247.552l-2.298-11.569
	l-0.133-0.671c0,0-1.089,0.25-2.93,0.79c-7.939,2.29-29.939,9.84-39.3,25.35c-7.25,12.01-9.609,23.61-9.83,33.25h46.421
	c-2.005-4.391-3.73-8.817-5.047-12.941c0.405,1.034,0.657,1.623,0.657,1.623l5.279-1.67l1.819-0.575l11-3.478l4.546-1.438
	l0.465-0.146c-2.257-7.475-3.812-12.6-5.011-16.208C371.617,259.799,371.596,259.736,371.573,259.669z M167.968,398.02
	c-0.011,0.233-0.041,0.424-0.097,0.549c-0.049,0.108-0.109,0.212-0.172,0.313c0.36,0.343,0.719,0.694,1.075,1.052
	c-0.06-0.439-0.202-0.876-0.439-1.283L167.968,398.02z M157.704,371.73l-1.912-6.229c-1.634-5.328-7.278-8.321-12.605-6.687
	l-0.238,0.073c-0.516,0.037-1.031,0.176-1.508,0.453c-0.008,0.005-0.015,0.012-0.023,0.017l-5.429,1.666l-0.069-0.225l-0.539,0.063
	l7.929,25.839v0.001l7.708-2.366c0.255-0.078,0.5-0.174,0.744-0.27l1.905,3.277c0.329-0.153,0.541-0.234,0.541-0.234
	s3.164-2.25,5.615-3.104l-2.768-4.763C158.192,376.995,158.501,374.327,157.704,371.73z M117.807,403.389l-12.003-39.114
	l-0.232-0.757c-0.281-0.916-1.251-1.432-2.168-1.149c-0.916,0.28-1.43,1.251-1.149,2.167l0.044,0.144l0.716,2.333l11.693,38.102
	c0.28,0.916,1.251,1.432,2.167,1.15s1.431-1.252,1.15-2.168L117.807,403.389z M236.667,385.555
	c-1.203-12.428-10.54-22.21-18.826-27.841l-2.874,2.874l-6.327,6.327l-7.424,7.424l-0.584,0.584l-2.563,2.563l-0.428,0.428
	l-1.439,1.439c-1.06,3.341-2.373,7.676-4.098,13.389l1.17,0.37l4.367,1.381l11,3.478l1.293,0.409l5.279,1.669
	c0,0,0.253-0.592,0.66-1.63c-1.316,4.127-3.043,8.556-5.049,12.949h46.421C257.024,401.729,238.667,406.222,236.667,385.555z
	 M108.781,210.048c0-2.777-2.251-5.029-5.029-5.029c-2.54,0-4.638,1.882-4.979,4.327c-0.342-2.445-2.44-4.327-4.979-4.327
	c-2.778,0-5.029,2.251-5.029,5.029c0,2.616,8.919,10.301,9.958,11.187c0,0.054,0,0.085,0,0.085s0.019-0.016,0.05-0.042
	c0.031,0.026,0.049,0.042,0.049,0.042s0-0.031,0-0.085C99.862,220.349,108.781,212.664,108.781,210.048z"></path>
</svg>