<?xml version="1.0" standalone="no"?>
<svg version="1.1" id="Layer_1_99_" xmlns="http://www.w3.org/2000/svg" xmlns:xlink="http://www.w3.org/1999/xlink" x="0px" y="0px" viewBox="0 0 595.276 595.276" enable-background="new 0 0 595.276 595.276" xml:space="preserve">
<path id="color_x5F_6" fill-rule="evenodd" clip-rule="evenodd" fill="#1687ea" d="M365.158,505.021h7.215l0.063,13.54
	c0,0.275,0.225,0.499,0.499,0.499h29.843c1.038,0,1.959-0.675,2.274-1.664c0.315-0.989-0.048-2.072-0.894-2.672
	c-4.246-3.013-9.505-6.746-9.841-6.984c0.047-0.077,0.073-0.165,0.074-0.255l0.014-2.034c0.095,0.14,0.255,0.223,0.423,0.219
	c22.7,0.644,42.492,2.168,56.587,4.245c7.047,1.039,12.674,2.215,16.501,3.477c1.915,0.63,3.379,1.286,4.327,1.925
	c0.948,0.639,1.321,1.216,1.321,1.688c0,0.276-0.114,0.57-0.414,0.917c-0.301,0.347-0.783,0.724-1.442,1.102
	c-1.316,0.756-3.325,1.514-5.924,2.236c-5.2,1.443-12.77,2.755-22.13,3.854c-18.718,2.2-44.598,3.564-73.163,3.564
	c-28.565,0-54.444-1.363-73.163-3.564c-9.359-1.1-16.932-2.411-22.131-3.854c-2.599-0.722-4.605-1.48-5.922-2.236
	c-0.659-0.378-1.143-0.755-1.442-1.102c-0.3-0.347-0.414-0.641-0.414-0.917c0-0.465,0.362-1.032,1.283-1.662
	c0.923-0.63,2.348-1.277,4.214-1.901c3.731-1.246,9.221-2.415,16.103-3.447c13.701-2.053,32.945-3.577,55.07-4.262l0.015,1.259
	c-0.044,0.017-0.085,0.039-0.123,0.067c0,0-5.994,4.479-10.332,7.721c-0.801,0.597-1.128,1.646-0.814,2.593
	c0.315,0.947,1.205,1.588,2.202,1.588h29.663c0.275,0,0.499-0.226,0.499-0.499L365.158,505.021z M336.304,362.315l22.041,4.022
	l0.859,2.99l-18.051,6.473L336.304,362.315z M331.928,293.356l20.422,56.954l-21.29-2.495c0.01-0.079,0.002-0.159-0.025-0.234
	l-17.228-48.042L331.928,293.356z M295.213,148.598c37.986,0,68.817,30.831,68.817,68.817c0,26.837-14.583,50.083-36.99,61.431
	l-19.237,6.562c-0.007,0.001-0.015,0.002-0.022,0.004c-4.027,0.739-8.277,0.817-12.569,0.817c-37.985,0-68.814-30.83-68.814-68.814
	C226.399,179.43,257.228,148.598,295.213,148.598z M295.215,163.918c-29.54,0-53.497,23.958-53.497,53.498
	s23.957,53.495,53.497,53.495c29.54,0,53.498-23.955,53.498-53.495S324.755,163.918,295.215,163.918z M287.178,179.438
	c-18.638,3.726-32.606,23.364-29.202,42.784c0,0.03-0.004,1.539-0.903,2.099c-0.634,0.395-1.293,0.407-1.869,0.09
	c-0.575-0.317-1.085-0.992-1.268-2.097v-0.002c-3.291-20.587,11.067-42.453,32.248-46.75c0.592-0.12,2.662-0.317,2.918-0.081
	c0.954,0.877,0.638,2.175,0.301,2.707c-0.339,0.532-1.048,1.023-2.22,1.25H287.178z"></path>
<path id="color_x5F_5" fill-rule="evenodd" clip-rule="evenodd" fill="#FFD2BB" d="M323.463,348.953
	c-0.011,0.026,2.242-0.381,3.021-0.389c1.558-0.015,8.035,0.63,8.035,0.63s41.237,4.772,41.329,4.578l2.68-5.688l15.36,4.362
	l-6.786,18.301c0,0-53.051-9.815-53.154-9.754c-3.377,1.97-7.194,1.131-10.538-0.652c-0.038-0.208-0.365-1.979-0.538-4.366
	C322.688,353.466,322.746,350.517,323.463,348.953c0.002-0.005,0.006-0.014,0.011-0.025L323.463,348.953z M312.861,299.864
	l14.182,39.547l-11.763-0.154l-5.714-38.652C310.122,300.657,312.861,299.864,312.861,299.864z M360.125,289.076
	c1.002,1.04,2.421,2.015,4.422,2.626c3.014,0.92,4.558,1.384,5.349,1.619c0.053,0.015,0.049,0.013,0.095,0.027
	c-0.412,0.395-1.11,0.99-1.98,2.378c-0.552,0.882-1.036,1.898-1.22,2.978c-0.184,1.082-0.049,2.244,0.636,3.299
	c0,0.001,0,0.001,0,0.002c0.143,0.22,1.142,0.247,1.312,0.135c0.344-0.224,1.725-1.55,2.047-1.781
	c0.323-0.232,0.59-0.319,0.702-0.307c0.389,0.043,1.556,1.246,1.694,1.551c-0.424,1.871-1.328,2.631-2.134,2.99
	c-0.823,0.367-1.579,0.278-1.606,0.278c-0.275,0-0.499,0.226-0.499,0.499c0,0.261,0.203,0.479,0.462,0.498
	c0,0,0.975,0.115,2.05-0.365c0.817-0.365,1.7-1.097,2.282-2.397c0.905,2.285,2.563,4.79,4.372,6.521
	c1.058,1.012,2.161,1.768,3.276,2.006c0.308,0.065,0.616,0.077,0.92,0.043l0.221,6.589c-2.466,2.223-4.842,3.36-7.135,3.377
	c-2.3,0.017-4.584-1.079-6.899-3.373c0,0,0.002-8.254-0.272-8.254l-1.509-0.121c-1.413,0-4.3-0.445-6.796-1.255
	c-1.248-0.406-2.405-0.905-3.239-1.457c-0.833-0.552-1.297-1.135-1.357-1.66C354.554,298.83,357.002,293.556,360.125,289.076z"></path>
<path id="color_x5F_4" fill-rule="evenodd" clip-rule="evenodd" fill="#f8e71c" d="M374.449,278.335
	c2.811-0.076,5.643,0.406,8.328,1.461c2.928,1.151,5.279,4.436,6.738,8.386c1.445,3.913,2.004,8.436,1.549,11.995
	c0,0-7.546,10.454-7.555,10.467c-0.229,0.358-1.597,0.08-1.914,0.012c-0.808-0.172-1.814-0.812-2.794-1.75
	c-1.962-1.876-3.832-4.906-4.499-7.211c-0.164-0.564-1.99-2.557-2.704-2.636c-0.535-0.059-2.184,1.148-2.532,1.48
	c-0.347,0.332-0.668,0.629-0.867,0.759c-0.452-0.781-0.355-1.58-0.422-2.427c-0.202-2.478,3.416-5.42,3.416-5.42
	c0.106-0.095-0.622-0.973-1.015-1.089c-0.786-0.234-2.326-0.697-5.34-1.617c-2.892-0.884-4.377-2.518-5.173-3.937
	c-0.715-1.272-0.769-2.109-0.79-2.315l5.206-3.133c2.826-1.699,5.965-2.692,9.165-2.959
	C373.648,278.368,374.047,278.346,374.449,278.335z M333.444,291.786l-22.512,7.682c-1.613,0.55-3.36-0.307-3.91-1.92l-2.311-6.775
	c-0.55-1.614,0.307-3.357,1.92-3.907c0,0,23.328-7.87,23.727-7.842c1.197,0.085,2.28,0.869,2.694,2.079l2.311,6.774
	C335.914,289.489,335.057,291.235,333.444,291.786z M500.948,149.847c0.031,0.023,0.064,0.042,0.099,0.057l8.178,3.529
	l-14.024,12.624l-9.998-0.195L500.948,149.847z M494.851,138.533c0,0,2.392,8.309,2.483,8.379l-15.762,14.56l-0.665-8.275
	L494.851,138.533z"></path>
<path id="color_x5F_3" fill-rule="evenodd" clip-rule="evenodd" fill="#f2f2f2" d="M343.689,397.729h50.424l-0.718,109.388
	c-7.815,3.159-14.362,3.042-19.99,0.327c0,0-1.402-85.05-1.652-85.077c0,0-6.987-0.468-6.989-0.195l-0.626,85.655
	c-6.228,2.637-12.465,3.149-19.028-0.592L343.689,397.729z M395.779,323.349c4.315,1.227,6.811,5.704,5.585,10.019
	c-2.236,7.87-5.15,18.127-5.301,18.659l-17.208-4.888c-0.015-0.062-0.041-0.119-0.078-0.17l4.774-16.805
	c0.717-2.525,2.408-4.661,4.701-5.94c1.147-0.639,2.396-1.037,3.674-1.186c0.32-0.038,0.642-0.059,0.964-0.065
	c0.967-0.018,1.939,0.106,2.885,0.375H395.779z M346.272,319.664l-0.259,10.013l-3.551-9.9L346.272,319.664z M382.997,319.21
	l3.523,1.208l-10.095,5.676l-0.618-3.478C378.212,322.48,380.612,321.307,382.997,319.21z M367.791,319.01
	c1.421,1.408,2.882,2.408,4.368,2.996l-0.915,3.992l-8.707-6.823l5.162-0.154C367.729,319.021,367.76,319.017,367.791,319.01z
	 M182.068,113.19h33.441v115.701c0,15.165-1.248,26.812-3.715,34.913c-3.32,10.589-9.32,19.073-18.029,25.481v-0.002
	c-8.694,6.391-20.174,9.603-34.495,9.603c-16.796,0-29.623-5.017-38.625-15.044c-8.934-9.943-13.474-24.559-13.62-43.869
	l31.583-3.888c0.415,10.25,1.825,17.578,4.351,21.981c3.802,6.716,9.708,10.138,17.473,10.138c7.807,0,13.467-2.418,16.759-7.295
	c3.333-4.916,4.879-14.748,4.879-29.64V113.19z M396.851,281.852h-9.759c-1.136-1.336-2.445-2.393-3.949-2.984
	c-2.836-1.114-5.83-1.617-8.797-1.527V141.465h24.343v50.447c0,0,0,0,0,0.001c0,0.274,0.791,0.432,0.886,0.317
	c7.696-9.389,16.965-14.036,27.548-14.036c9.935,0,18.383,3.221,25.455,10.06l-9.145,8.449c-0.077,0.072-0.13,0.165-0.151,0.268
	c-0.418,2.067-0.099,3.648,1.015,4.551c1.114,0.903,2.818,1.056,4.986,0.731c0.107-0.016,8.164-8.162,8.164-8.162
	c6.08,8.758,9.504,20.978,9.504,35.933c0,17.501-3.868,30.802-11.543,40.164c-7.696,9.388-16.956,14.035-28.101,14.035
	c-8.946,0-13.846-0.692-17.123-1.73c-3.278-1.038-4.977-2.429-7.603-3.931c-0.006-0.004-0.013-0.008-0.019-0.011
	c-1.406-0.725-2.514-0.908-3.397-0.681s-1.459,0.871-1.791,1.549C396.894,280.406,396.85,281.316,396.851,281.852z M420.278,198.928
	c5.329,0,9.888,1.983,13.513,5.991l4.118,6.494c2.075,4.953,3.145,11.634,3.145,19.994c0,10.988-2.035,18.972-5.812,23.972
	c-4.004,4.856-8.455,7.32-14.039,7.32c-7.05,0-12.772-3.425-16.96-10.421c-0.001-0.001-0.002-0.003-0.004-0.004
	c-3.066-5.007-4.734-12.823-4.734-23.434c0-10.203,2.024-17.586,5.997-22.598C409.494,201.204,414.302,198.928,420.278,198.928z"></path>
<path id="color_x5F_2" fill-rule="evenodd" clip-rule="evenodd" fill="#002c7e" d="M402.778,518.061h-29.343v-9.476
	c5.679,2.576,12.28,2.629,19.89-0.346c0.03,0.036,0.065,0.068,0.103,0.094c0,0,5.773,4.098,10.154,7.206
	c0.495,0.352,0.705,0.977,0.521,1.555C403.918,517.671,403.385,518.061,402.778,518.061z M364.203,517.962H335.04
	c-0.571,0-1.074-0.364-1.254-0.905c-0.18-0.543,0.004-1.133,0.462-1.475c0-0.001,0-0.001,0-0.002
	c4.257-3.18,9.917-7.41,10.139-7.575c6.804,3.974,13.432,3.522,19.817,0.897V517.962z M394.311,396.73h-50.614l0.542-20.977
	l15.743-5.643c0.247-0.089-0.538-3.573-0.538-3.573s27.339,4.912,27.455,4.801c0,0,1.421-1.386,1.447-1.455l6.506-17.165
	l1.067,0.305l-1.339,43.603C394.482,396.635,394.389,396.671,394.311,396.73z M361.441,319.21c-0.049,0.193,0.023,0.398,0.182,0.518
	l9.624,7.54c0.088,0.068,0.742-0.057,0.794-0.283l1.069-4.66c0.557,0.153,1.119,0.249,1.682,0.287c0,0.002,0,0.004,0,0.006
	l0.772,4.344c0.043,0.238,0.663,0.389,0.738,0.348l11.415-6.418c0.023-0.012,0.045-0.027,0.065-0.043l3.668,1.258
	c-1.281,0.193-2.532,0.603-3.686,1.246c-2.524,1.407-4.386,3.759-5.175,6.539c-1.845,8.034-3.893,15.967-7.493,23.128l-21.638-2.577
	l-6.783-18.918c0.178-0.078,0.594-11.893,0.594-11.893L361.441,319.21z M295.215,163.918c-29.54,0-53.497,23.958-53.497,53.498
	s23.957,53.495,53.497,53.495c29.54,0,53.498-23.955,53.498-53.495S324.755,163.918,295.215,163.918z M434.449,205.678
	c0.139,0.17,0.279,0.343,0.415,0.518l2.555,4.29c0,0-6.073,6.276-6.073,6.406c0,0.198,4.844,2.458,4.844,2.458l-18.946,6.4
	l8.293-17.718c0,0,1.926,4.549,2.13,4.549C427.805,212.581,434.449,205.678,434.449,205.678z M287.182,179.438
	c1.173-0.228,1.882-0.718,2.22-1.25c0.338-0.531,0.653-1.83-0.301-2.707c-0.257-0.236-2.326-0.039-2.918,0.081
	c-21.181,4.297-35.539,26.163-32.248,46.75v0.002c0.184,1.106,0.693,1.781,1.268,2.097c0.575,0.317,1.234,0.305,1.869-0.09
	c0.899-0.56,0.903-2.069,0.903-2.099c-3.404-19.42,10.563-39.056,29.202-42.784H287.182z M501.061,144.83l1.752,1.695
	l-53.824,54.742c-1.949,0.269-3.33,0.07-4.061-0.523c-0.73-0.592-1.004-1.658-0.671-3.443L501.061,144.83z"></path>
<path id="color_x5F_1" fill="#002a63" d="M280.188,85.373c-0.547,0.008-0.991,0.464-0.983,1.012v9.959c0,0.005,0,0.009,0,0.014
	c0,0.548,0.45,0.999,0.999,0.999c0.548,0,0.999-0.45,0.999-0.999c0-0.005,0-0.009,0-0.014v-9.959c0-0.004,0-0.009,0-0.013
	c0-0.548-0.45-1-0.999-1C280.199,85.372,280.194,85.372,280.188,85.373z M267.47,90.648c-0.548,0-0.999,0.45-0.999,0.999
	c0,0.27,0.109,0.527,0.303,0.716l7.041,7.041c0.189,0.197,0.449,0.308,0.721,0.308c0.548,0,0.999-0.451,0.999-0.999
	c0-0.272-0.111-0.532-0.307-0.721l-7.042-7.041C267.998,90.757,267.739,90.648,267.47,90.648z M292.906,90.648
	c-0.26,0.008-0.506,0.116-0.687,0.303l-7.04,7.041c-0.196,0.189-0.307,0.449-0.307,0.721c0,0.547,0.45,0.999,0.999,0.999
	c0.272,0,0.532-0.111,0.72-0.308l7.04-7.041c0.194-0.189,0.303-0.446,0.303-0.717c0-0.547-0.45-0.999-0.999-0.999
	C292.925,90.647,292.916,90.648,292.906,90.648z M428.225,94.682c-0.547,0.008-0.991,0.465-0.983,1.013v9.958
	c0,0.005,0,0.01,0,0.014c0,0.548,0.45,0.999,0.999,0.999c0.547,0,0.999-0.45,0.999-0.999c0-0.004,0-0.009,0-0.014v-9.958
	c0-0.005,0-0.01,0-0.014c0-0.548-0.451-0.999-0.999-0.999C428.236,94.682,428.23,94.682,428.225,94.682z M415.507,99.956
	c-0.548,0-0.999,0.451-0.999,0.999c0,0.27,0.109,0.528,0.302,0.716l7.042,7.042c0.189,0.196,0.448,0.307,0.721,0.307
	c0.547,0,0.999-0.45,0.999-0.999c0-0.272-0.111-0.532-0.308-0.72l-7.041-7.042C416.034,100.065,415.776,99.956,415.507,99.956z
	 M440.943,99.956c-0.26,0.008-0.504,0.117-0.685,0.303l-7.042,7.042c-0.196,0.188-0.307,0.448-0.307,0.72
	c0,0.548,0.45,0.999,0.999,0.999c0.272,0,0.532-0.111,0.72-0.307l7.042-7.042c0.194-0.188,0.303-0.446,0.303-0.716
	c0-0.548-0.45-0.999-0.999-0.999C440.964,99.956,440.953,99.956,440.943,99.956z M262.21,103.38c-0.004,0-0.009,0-0.014,0
	c-0.547,0-0.999,0.45-0.999,0.999c0,0.547,0.451,0.999,0.999,0.999c0.005,0,0.01,0,0.014,0h9.959c0.005,0,0.009,0,0.014,0
	c0.548,0,0.999-0.451,0.999-0.999c0-0.548-0.45-0.999-0.999-0.999c-0.005,0-0.009,0-0.014,0H262.21z M288.237,103.38
	c-0.005,0-0.01,0-0.014,0c-0.548,0-0.999,0.45-0.999,0.999c0,0.547,0.45,0.999,0.999,0.999c0.004,0,0.009,0,0.014,0h9.959
	c0.004,0,0.009,0,0.014,0c0.547,0,0.999-0.451,0.999-0.999c0-0.548-0.451-0.999-0.999-0.999c-0.005,0-0.01,0-0.014,0H288.237z
	 M274.502,109.051c-0.26,0.007-0.506,0.116-0.687,0.302l-7.041,7.042c-0.188,0.188-0.293,0.441-0.293,0.706c0,0.548,0.451,1,1,1
	c0.265,0,0.519-0.106,0.707-0.294l7.04-7.042c0.193-0.188,0.303-0.446,0.303-0.716c0-0.547-0.451-0.999-1-0.999
	C274.522,109.05,274.512,109.05,274.502,109.051z M285.873,109.051c-0.001,0-0.001,0-0.002,0c-0.548,0-0.999,0.45-0.999,0.999
	c0,0.27,0.11,0.529,0.304,0.717l7.042,7.04c0.189,0.197,0.448,0.308,0.721,0.308c0.547,0,0.999-0.451,0.999-0.999
	c0-0.273-0.111-0.532-0.308-0.721l-7.041-7.04C286.402,109.161,286.143,109.051,285.873,109.051z M280.188,111.4
	c-0.541,0.009-0.983,0.456-0.983,0.999c0,0.005,0,0.011,0,0.016v9.958c0,0.005,0,0.01,0,0.015c0,0.547,0.45,0.999,0.999,0.999
	c0.548,0,0.999-0.451,0.999-0.999c0-0.005,0-0.01,0-0.015v-9.958c0-0.005,0-0.011,0-0.016c0-0.548-0.45-0.999-0.999-0.999
	C280.199,111.4,280.194,111.4,280.188,111.4z M181.568,111.692c-0.548,0-0.999,0.451-0.999,0.999V231.27
	c0,14.784-1.699,24.49-4.621,28.801c-2.978,4.412-8.015,6.636-15.518,6.636c-7.334,0-12.583-3.043-16.169-9.381
	c-0.002-0.002-0.003-0.004-0.004-0.006c-2.331-4.064-3.807-11.386-4.187-21.831c-0.019-0.534-0.463-0.963-0.998-0.963
	c-0.042,0-0.083,0.002-0.124,0.007l-32.573,4.011c-0.5,0.061-0.88,0.491-0.878,0.995c0.077,19.773,4.706,34.926,14.032,45.304
	c9.31,10.37,22.645,15.542,39.741,15.542c14.544,0,26.374-3.271,35.383-9.894c8.954-6.589,15.165-15.375,18.57-26.242
	c0.002-0.002,0.003-0.005,0.004-0.007c2.543-8.348,3.78-20.104,3.78-35.35V112.691c0-0.547-0.45-0.999-0.999-0.999H181.568z
	 M410.247,112.689c-0.005,0-0.009,0-0.014,0c-0.548,0-0.999,0.451-0.999,0.999c0,0.548,0.45,0.999,0.999,0.999
	c0.005,0,0.009,0,0.014,0h9.959c0.005,0,0.009,0,0.014,0c0.548,0,0.999-0.45,0.999-0.999c0-0.547-0.45-0.999-0.999-0.999
	c-0.005,0-0.009,0-0.014,0H410.247z M436.274,112.689c-0.005,0-0.01,0-0.014,0c-0.548,0-1,0.451-1,0.999
	c0,0.548,0.451,0.999,1,0.999c0.004,0,0.009,0,0.014,0h9.958c0.005,0,0.01,0,0.015,0c0.547,0,0.999-0.45,0.999-0.999
	c0-0.547-0.451-0.999-0.999-0.999c-0.005,0-0.01,0-0.015,0H436.274z M182.567,113.69h32.443v115.202
	c0,15.138-1.252,26.75-3.694,34.768c-3.291,10.497-9.221,18.874-17.847,25.221c-8.59,6.314-19.954,9.506-34.198,9.506
	c-16.696,0-29.354-4.965-38.254-14.878c-8.756-9.746-13.248-24.099-13.464-43.099l30.594-3.764
	c0.443,9.983,1.823,17.206,4.377,21.663c3.875,6.847,9.999,10.395,17.908,10.395c7.908,0,13.775-2.483,17.172-7.514l0.002-0.002
	c3.469-5.119,4.963-14.993,4.963-29.919V113.69z M422.539,118.36c-0.26,0.008-0.506,0.116-0.687,0.303l-7.04,7.041
	c-0.196,0.189-0.307,0.449-0.307,0.721c0,0.548,0.45,0.999,0.999,0.999c0.272,0,0.532-0.111,0.72-0.308l7.04-7.041
	c0.194-0.189,0.303-0.446,0.303-0.716c0-0.548-0.45-1-0.999-1C422.558,118.359,422.549,118.36,422.539,118.36z M433.91,118.36
	c-0.548,0-0.999,0.45-0.999,0.999c0,0.27,0.109,0.528,0.302,0.716l7.042,7.041c0.189,0.197,0.448,0.308,0.72,0.308
	c0.548,0,1-0.45,1-0.999c0-0.272-0.112-0.532-0.308-0.721l-7.042-7.041C434.438,118.469,434.179,118.36,433.91,118.36L433.91,118.36
	z M428.225,120.708c-0.547,0.009-0.991,0.465-0.983,1.013v9.959c0,0.005,0,0.009,0,0.014c0,0.548,0.45,0.999,0.999,0.999
	c0.547,0,0.999-0.45,0.999-0.999c0-0.005,0-0.009,0-0.014v-9.959c0-0.004,0-0.009,0-0.014c0-0.547-0.451-0.999-0.999-0.999
	C428.236,120.708,428.23,120.708,428.225,120.708z M495.086,136.557c-0.272,0.001-0.531,0.113-0.718,0.31l-14.699,15.46
	c-0.196,0.206-0.295,0.485-0.272,0.768l0.726,9.036l-26.805,24.763c-7.277-6.895-16.072-10.199-26.194-10.199
	c-10.247,0-19.338,4.436-26.936,12.791v-48.521c0-0.548-0.451-0.999-0.999-0.999h-25.342c-0.548,0-0.999,0.45-0.999,0.999V276.94
	c-3.331,0.32-6.592,1.367-9.535,3.137l-5.54,3.332c-0.322,0.194-0.507,0.554-0.479,0.929c0,0,0.116,1.512,1.067,3.205
	c0.139,0.247,0.304,0.5,0.481,0.754c-3.206,4.623-5.823,10.292-5.009,17.395c0.138,1.204,1.001,2.069,2.017,2.742
	c1.016,0.672,2.275,1.199,3.606,1.63c2.659,0.864,7.541,1.33,7.541,1.33v6.15l-24.538,0.735l-8.94-24.935l0.412-0.14
	c2.381-0.813,3.667-3.432,2.854-5.812l-2.311-6.773c-0.439-1.287-1.41-2.246-2.583-2.735c20.53-12.27,33.641-34.788,33.641-60.469
	c0-38.797-31.519-70.315-70.315-70.315c-38.796,0-70.312,31.519-70.312,70.315c0,38.796,31.517,70.312,70.312,70.312
	c2.844,0,5.695-0.052,8.514-0.295c-0.67,1.118-0.884,2.502-0.434,3.823l2.312,6.776c0.423,1.243,1.345,2.174,2.463,2.678
	c0,0,5.914,38.728,6.197,38.875l1.633,0.847c0.132,0.068,11.108,0.475,11.108,0.475c0.015,0.001,0.029,0.001,0.043,0l2.236,6.233
	c-0.436-0.028-4.472-0.031-5.196,0.082c-0.362,0.056-1.732,0.552-1.974,1.071c-0.999,2.141-0.93,5.177-0.739,7.792
	c0.191,2.614,0.83,5.326,1.092,5.469c3.516,1.928,7.86,2.939,11.793,0.898l0.534,0.097l5.117,14.227
	c0.186,0.515,0.761,0.787,1.276,0.603l1.523-0.546l-0.526,20.348c0,0.002,0,0.004,0,0.006v0.018c-0.001,0.012-0.001,0.024,0,0.037
	l1.386,107.01c-21.965,0.694-41.075,2.209-54.773,4.263c-6.931,1.039-12.472,2.208-16.355,3.506
	c-1.941,0.648-3.467,1.32-4.583,2.083c-1.118,0.762-1.938,1.709-1.938,2.9c0,0.707,0.317,1.361,0.778,1.896
	c0.462,0.534,1.075,0.99,1.828,1.422c1.508,0.865,3.603,1.639,6.27,2.38c5.335,1.481,12.952,2.795,22.356,3.899
	c18.806,2.21,44.726,3.574,73.338,3.574c28.613,0,54.533-1.363,73.339-3.574c9.403-1.105,17.021-2.418,22.356-3.899
	c2.667-0.741,4.76-1.515,6.267-2.38c0.754-0.433,1.368-0.888,1.83-1.422c0.462-0.534,0.779-1.189,0.779-1.896
	c0-1.208-0.84-2.16-1.983-2.93c-1.143-0.77-2.705-1.449-4.693-2.104c-3.978-1.31-9.658-2.492-16.753-3.537
	c-14.182-2.089-33.997-3.613-56.722-4.259l0.696-106.111c0.271-0.179,0.438-0.477,0.448-0.802c0,0,1.365-44.464,1.359-44.514
	c0.055-0.194,3.115-10.969,5.388-18.969c1.435-5.052-1.489-10.313-6.506-11.813c0,0-1.925-0.441-2-0.467l-10.284-3.524l-0.211-6.363
	c0.38-0.256,8.541-10.641,8.541-10.641c0.11-0.14,0.18-0.307,0.203-0.481c0.521-3.892-0.082-8.643-1.627-12.824
	c-0.567-1.536-1.264-3.001-2.092-4.314h8.511c0.548,0,0.999-0.45,0.999-0.999c0-0.02,0-0.04-0.002-0.06c0,0-0.024-1.375,0.387-2.218
	c0.206-0.421,0.424-0.652,0.817-0.753c0.393-0.101,1.126-0.06,2.331,0.56c2.501,1.433,4.375,2.935,7.861,4.04
	c3.504,1.109,8.554,1.8,17.577,1.8c11.564,0,21.342-4.925,29.259-14.583c7.959-9.71,11.883-23.393,11.883-41.114
	c0-15.08-3.426-27.538-9.647-36.6l25.643-26.079l10.923,0.215c0.253,0.005,0.498-0.087,0.686-0.256l14.752-13.279
	c0.21-0.19,0.329-0.458,0.329-0.741c0-0.398-0.237-0.759-0.602-0.917l-7.976-3.442l1.678-1.707c0.184-0.187,0.287-0.438,0.287-0.7
	c0-0.271-0.11-0.529-0.305-0.717l-2.452-2.374c-0.194-0.188-0.455-0.29-0.726-0.282c-0.24,0.007-0.47,0.101-0.647,0.264l-2.056,1.9
	l-2.282-8.025C495.931,136.852,495.533,136.554,495.086,136.557z M494.609,139.512l2.064,7.254c0.006,0.02,0.013,0.04,0.02,0.059
	l-14.705,13.583l-0.563-7.029L494.609,139.512z M374.845,141.964h23.345v49.947l0,0c0,0.548,0.45,0.999,0.999,0.999
	c0.299,0,0.582-0.134,0.772-0.366c7.622-9.298,16.728-13.852,27.163-13.852c9.648,0,17.819,3.055,24.723,9.558l-8.75,8.084
	c-0.155,0.142-0.261,0.33-0.303,0.534c-0.436,2.159-0.104,3.987,1.19,5.037c1.294,1.051,3.142,1.174,5.374,0.839
	c0.215-0.032,0.412-0.134,0.564-0.289l7.452-7.579c5.794,8.617,9.079,20.55,9.079,35.145c0,17.427-3.85,30.601-11.43,39.848
	c-7.622,9.299-16.71,13.852-27.714,13.852c-8.92,0-13.771-0.693-16.973-1.707c-3.202-1.014-4.843-2.365-7.505-3.887
	c-0.013-0.008-0.026-0.015-0.039-0.022c-1.47-0.757-2.703-0.991-3.749-0.721c-1.046,0.269-1.742,1.049-2.114,1.812
	c-0.369,0.755-0.511,1.546-0.565,2.155h-9.034c-1.147-1.305-2.469-2.348-4.003-2.951c-2.736-1.075-5.614-1.585-8.48-1.562V141.964z
	 M501.053,145.516l1.052,1.019l-53.334,54.244c-1.779,0.219-2.991,0.013-3.529-0.422c-0.533-0.433-0.764-1.261-0.503-2.822
	L501.053,145.516z M295.213,149.098c37.715,0,68.318,30.603,68.318,68.318c0,26.649-14.468,49.708-36.698,60.975l-19.143,6.531
	c-3.971,0.728-8.191,0.809-12.477,0.809c-37.715,0-68.315-30.6-68.315-68.315S257.498,149.098,295.213,149.098z M501.055,150.452
	l7.257,3.129l-13.299,11.971l-8.639-0.17L501.055,150.452z M114.404,152.219c-0.548,0.008-0.993,0.464-0.985,1.013v9.959
	c0,0.004,0,0.009,0,0.014c0,0.547,0.45,0.999,0.999,0.999c0.547,0,0.999-0.451,0.999-0.999c0-0.005,0-0.01,0-0.014v-9.959
	c0-0.005,0-0.009,0-0.014c0-0.547-0.451-0.999-0.999-0.999C114.413,152.219,114.409,152.219,114.404,152.219z M101.683,157.494
	c-0.547,0.001-0.997,0.451-0.997,0.999c0,0.269,0.109,0.527,0.302,0.715l7.04,7.042c0.189,0.196,0.448,0.308,0.721,0.308
	c0.547,0,0.999-0.451,0.999-0.999c0-0.273-0.111-0.532-0.308-0.721l-7.04-7.042C102.213,157.602,101.953,157.493,101.683,157.494z
	 M127.12,157.494c-0.259,0.007-0.505,0.116-0.686,0.302l-7.042,7.042c-0.196,0.189-0.307,0.448-0.307,0.721
	c0,0.547,0.45,0.999,0.999,0.999c0.272,0,0.532-0.112,0.72-0.308l7.042-7.042c0.194-0.188,0.303-0.446,0.303-0.716
	c0-0.547-0.451-0.999-0.999-0.999C127.14,157.493,127.13,157.493,127.12,157.494z M295.215,163.418
	c-29.81,0-53.996,24.188-53.996,53.997s24.187,53.994,53.996,53.994s53.997-24.185,53.997-53.994S325.025,163.418,295.215,163.418z
	 M295.215,165.416c28.73,0,52,23.27,52,52s-23.27,51.997-52,51.997c-28.73,0-51.999-23.267-51.999-51.997
	S266.485,165.416,295.215,165.416z M96.424,170.227c-0.005,0-0.009-0.001-0.014-0.001c-0.548,0-0.999,0.451-0.999,1
	c0,0.547,0.45,0.999,0.999,0.999c0.005,0,0.009,0,0.014,0h9.959c0.004,0,0.009,0,0.014,0c0.548,0,0.999-0.451,0.999-0.999
	c0-0.548-0.45-1-0.999-1c-0.005,0-0.01,0.001-0.014,0.001H96.424z M122.451,170.227c-0.005,0-0.01-0.001-0.015-0.001
	c-0.547,0-0.999,0.451-0.999,1c0,0.547,0.451,0.999,0.999,0.999c0.005,0,0.01,0,0.015,0h9.958c0.005,0,0.01,0,0.014,0
	c0.548,0,1-0.451,1-0.999c0-0.548-0.451-1-1-1c-0.004,0-0.009,0.001-0.014,0.001H122.451z M287.886,173.834
	c-0.797-0.03-1.452,0.151-2,0.262c-22.021,4.467-36.855,27.035-33.429,48.454c0,0.002,0,0.004,0,0.006
	c0.242,1.46,0.985,2.596,2.025,3.168c1.04,0.572,2.338,0.52,3.383-0.131c1.834-1.143,1.607-3.445,1.607-3.445
	c-0.002-0.044-0.006-0.088-0.014-0.131c-3.288-18.577,10.211-37.546,28.009-41.108c1.457-0.284,2.581-0.943,3.2-1.918
	c0.619-0.975,0.627-2.222,0.097-3.262c0,0-0.001,0-0.002,0c-0.131-0.257-0.324-0.723-0.79-1.128
	c-0.465-0.404-1.124-0.654-2.002-0.762C287.942,173.837,287.914,173.835,287.886,173.834z M287.771,175.835
	c0.569,0.08,0.804,0.201,0.892,0.277c0.092,0.08,0.154,0.199,0.322,0.527h-0.002c0.265,0.518,0.243,0.896-0.002,1.281
	c-0.245,0.385-0.817,0.818-1.894,1.028c-0.002,0-0.004,0-0.006,0c-18.905,3.779-33.023,23.613-29.607,43.301
	c-0.003,0.047-0.079,1.281-0.667,1.648c-0.496,0.31-0.941,0.308-1.361,0.076c-0.419-0.231-0.852-0.753-1.017-1.738
	c-3.248-20.31,10.952-41.944,31.854-46.184C286.884,175.93,287.349,175.826,287.771,175.835z M108.718,175.897
	c-0.26,0.008-0.506,0.117-0.687,0.303l-7.042,7.042c-0.196,0.188-0.307,0.448-0.307,0.72c0,0.548,0.45,0.999,0.999,0.999
	c0.272,0,0.532-0.111,0.72-0.307l7.042-7.042c0.194-0.188,0.303-0.446,0.303-0.716c0-0.548-0.45-0.999-0.999-0.999
	C108.737,175.897,108.727,175.897,108.718,175.897z M120.088,175.897L120.088,175.897c-0.549,0-1,0.451-1,0.999
	c0,0.271,0.11,0.53,0.304,0.718l7.042,7.04c0.188,0.196,0.448,0.307,0.72,0.307c0.548,0,0.999-0.45,0.999-0.999
	c0-0.272-0.111-0.532-0.307-0.72l-7.042-7.042C120.616,176.007,120.358,175.897,120.088,175.897z M114.404,178.246
	c-0.542,0.007-0.985,0.455-0.985,0.999c0,0.005,0,0.01,0,0.016v9.958c0,0.005,0,0.01,0,0.014c0,0.548,0.45,0.999,0.999,0.999
	c0.547,0,0.999-0.45,0.999-0.999c0-0.004,0-0.009,0-0.014v-9.958c0-0.006,0-0.011,0-0.016c0-0.548-0.451-0.999-0.999-0.999
	C114.413,178.246,114.409,178.246,114.404,178.246z M420.278,197.43c-6.363,0-11.728,2.552-15.952,7.881
	c-4.263,5.377-6.32,13.127-6.32,23.527c0,10.767,1.656,18.827,4.957,24.217c4.389,7.328,10.7,11.141,18.24,11.141
	c6.033,0,11.003-2.776,15.201-7.867c0.008-0.011,0.017-0.022,0.025-0.034c4.088-5.402,6.124-13.708,6.124-24.889
	c0-11.762-2.019-20.461-6.316-25.889c-0.045-0.059-0.092-0.112-0.137-0.17l-0.638-1.072c-0.143-0.24-0.382-0.41-0.655-0.465
	C430.926,199.595,425.937,197.43,420.278,197.43z M420.278,199.427c5.052,0,9.351,1.797,12.832,5.483l-5.086,5.35l-1.52-3.857
	c-0.15-0.381-0.519-0.631-0.929-0.631c-0.387,0-0.74,0.225-0.905,0.575l-9.278,19.827c-0.061,0.133-0.093,0.277-0.093,0.422
	c0,0.548,0.45,0.999,0.999,0.999c0.108,0,0.215-0.017,0.318-0.052l21.271-7.186c0.405-0.137,0.678-0.519,0.678-0.946
	c0-0.395-0.234-0.753-0.594-0.913l-4.403-1.94l4.167-4.254c1.85,4.791,2.819,11.178,2.819,19.102c0,10.928-2.034,18.806-5.71,23.672
	c-3.936,4.766-8.213,7.12-13.641,7.12c-6.887,0-12.412-3.293-16.533-10.178c-0.001-0.003-0.002-0.006-0.004-0.01
	c-2.988-4.879-4.662-12.614-4.662-23.173c0-10.136,2.012-17.397,5.888-22.287C409.807,201.612,414.432,199.427,420.278,199.427z
	 M434.415,206.437c0.01,0.012,0.02,0.026,0.03,0.039l2.348,3.936l-5.661,5.782c-0.183,0.187-0.286,0.437-0.286,0.699
	c0,0.396,0.235,0.755,0.596,0.914l3.367,1.483l-16.617,5.614l7.306-15.61l1.24,3.154c0.15,0.382,0.519,0.633,0.93,0.633
	c0.274,0,0.535-0.113,0.724-0.312L434.415,206.437z M374.465,278.835c2.744-0.074,5.509,0.396,8.131,1.426
	c2.717,1.067,5.02,4.221,6.451,8.093c1.402,3.798,1.936,8.205,1.519,11.646c0,0-7.716,9.885-7.84,9.996
	c-0.214,0.013-0.858,0.21-1.028,0.174c-0.654-0.139-1.611-0.722-2.554-1.623c-1.884-1.803-3.73-4.807-4.362-6.989
	c-0.188-0.649-0.542-1.292-1.051-1.85c-0.509-0.556-1.201-1.046-2.078-1.143c-0.746-0.083-1.288,0.252-1.74,0.575
	c-0.45,0.324-0.843,0.706-1.192,1.04c-0.084,0.081-0.115,0.097-0.193,0.17c-0.127-0.454-0.345-0.893-0.26-1.393
	c0.136-0.801,0.527-1.66,1.012-2.434c0.97-1.548,2.246-2.698,2.246-2.698c0.211-0.19,0.333-0.46,0.333-0.745
	c0-0.461-0.321-0.866-0.77-0.972c-0.003-0.001-0.027-0.008-0.076-0.022c-0.099-0.027-0.301-0.084-0.693-0.201
	c-0.783-0.232-2.324-0.697-5.337-1.617c-2.772-0.846-4.137-2.375-4.883-3.703c-0.579-1.032-0.588-1.512-0.636-1.846l4.875-2.929
	c2.76-1.659,5.826-2.63,8.95-2.891C373.681,278.867,374.072,278.845,374.465,278.835z M330.325,279.521
	c1.003,0.07,1.907,0.726,2.254,1.744l2.312,6.774c0.462,1.356-0.252,2.812-1.609,3.275l-22.513,7.682
	c-1.356,0.463-2.812-0.252-3.275-1.609l-2.311-6.773c-0.463-1.358,0.252-2.813,1.609-3.275l22.512-7.683
	C329.644,279.54,329.991,279.498,330.325,279.521z M360.21,289.842c1.025,0.935,2.382,1.785,4.191,2.337
	c2.665,0.814,3.866,1.175,4.73,1.432c-0.529,0.55-0.863,0.762-1.543,1.849c-0.574,0.918-1.088,1.988-1.287,3.162
	c-0.2,1.176-0.05,2.486,0.708,3.655c0.218,0.335,0.763,0.616,1.163,0.59c0.401-0.025,0.635-0.175,0.843-0.31
	c0.415-0.271,0.742-0.603,1.089-0.935c0.347-0.332,0.696-0.658,0.975-0.858c0.209-0.15,0.36-0.19,0.381-0.205
	c0.225,0.033,0.522,0.194,0.798,0.495c0.159,0.174,0.292,0.384,0.401,0.591c-0.404,1.62-1.151,2.196-1.812,2.491
	c-0.697,0.311-1.266,0.244-1.266,0.244c-0.038-0.005-0.077-0.007-0.116-0.007c-0.548,0-1,0.451-1,1c0,0.504,0.383,0.935,0.884,0.993
	c0,0,1.11,0.13,2.311-0.405c0.692-0.309,1.42-0.875,2.012-1.738c0.974,2.084,2.463,4.206,4.095,5.766
	c1.096,1.049,2.248,1.865,3.517,2.134c0.178,0.038,0.36,0.056,0.542,0.062l0.195,5.833c-2.34,2.06-4.549,3.11-6.632,3.125
	c-2.093,0.016-4.201-0.989-6.395-3.113v-7.636c0-0.547-0.451-0.999-0.999-0.999h-1.281c-1.314,0-4.198-0.438-6.64-1.231
	c-1.222-0.397-2.346-0.887-3.119-1.398c-0.773-0.512-1.103-1.003-1.138-1.303C355.093,299.154,357.285,294.162,360.21,289.842z
	 M331.626,293.99l19.984,55.729l-16.914-2.014c-0.004-0.001-0.008-0.001-0.012-0.002l-3.197-0.348L314.45,299.85L331.626,293.99z
	 M458.835,298.194c-0.547,0.008-0.991,0.464-0.984,1.012v9.959c0,0.005,0,0.009,0,0.014c0,0.548,0.451,0.999,0.999,0.999
	c0.548,0,0.999-0.45,0.999-0.999c0-0.005,0-0.009,0-0.014v-9.959c0-0.004,0-0.009,0-0.013c0-0.548-0.45-0.999-0.999-0.999
	C458.845,298.194,458.84,298.194,458.835,298.194z M312.559,300.496l13.767,38.391l-9.709-0.334l-0.98-0.507l-5.491-36.941
	c0.424-0.018,0.85-0.075,1.27-0.219L312.559,300.496z M446.115,303.469c-0.547,0-0.999,0.45-0.999,0.999
	c0,0.27,0.11,0.527,0.303,0.716l7.042,7.041c0.188,0.197,0.448,0.308,0.72,0.308c0.548,0,0.999-0.45,0.999-0.999
	c0-0.272-0.111-0.532-0.307-0.721l-7.042-7.041C446.644,303.578,446.385,303.469,446.115,303.469z M471.553,303.469
	c-0.26,0.008-0.505,0.116-0.687,0.303l-7.041,7.041c-0.197,0.189-0.308,0.449-0.308,0.721c0,0.548,0.451,0.999,0.999,0.999
	c0.272,0,0.532-0.111,0.721-0.308l7.042-7.041c0.193-0.189,0.303-0.446,0.303-0.716c0-0.548-0.451-1-1-1
	C471.573,303.468,471.563,303.469,471.553,303.469z M217.524,314.093c-0.548,0.007-0.993,0.464-0.985,1.012v9.959
	c0,0.005,0,0.009,0,0.014c0,0.548,0.45,0.999,0.999,0.999c0.547,0,0.999-0.45,0.999-0.999c0-0.005,0-0.009,0-0.014v-9.959
	c0-0.004,0-0.009,0-0.013c0-0.548-0.451-0.999-0.999-0.999C217.533,314.093,217.529,314.093,217.524,314.093z M440.857,316.201
	c-0.005,0-0.01,0-0.015,0c-0.547,0-0.999,0.45-0.999,0.999c0,0.548,0.451,0.999,0.999,0.999c0.005,0,0.01,0,0.015,0h9.958
	c0.005,0,0.01,0,0.014,0c0.548,0,1-0.45,1-0.999c0-0.548-0.451-0.999-1-0.999c-0.004,0-0.009,0-0.014,0H440.857z M466.883,316.201
	c-0.005,0-0.009,0-0.014,0c-0.548,0-0.999,0.45-0.999,0.999c0,0.548,0.45,0.999,0.999,0.999c0.005,0,0.009,0,0.014,0h9.959
	c0.005,0,0.009,0,0.014,0c0.548,0,0.999-0.45,0.999-0.999c0-0.548-0.45-0.999-0.999-0.999c-0.005,0-0.009,0-0.014,0H466.883z
	 M204.804,319.368c-0.547,0.001-0.997,0.451-0.997,0.999c0,0.27,0.109,0.527,0.302,0.716l7.04,7.041
	c0.188,0.188,0.441,0.293,0.706,0.293c0.548,0,1-0.451,1-1c0-0.265-0.106-0.519-0.294-0.707l-7.04-7.039
	C205.333,319.476,205.074,319.367,204.804,319.368z M230.241,319.368c-0.259,0.008-0.505,0.116-0.686,0.303l-7.042,7.041
	c-0.196,0.189-0.307,0.449-0.307,0.721c0,0.547,0.45,0.999,0.999,0.999c0.272,0,0.532-0.111,0.72-0.308l7.042-7.041
	c0.194-0.189,0.303-0.446,0.303-0.716c0-0.548-0.45-1-0.999-1C230.261,319.367,230.251,319.368,230.241,319.368z M367.61,319.525
	c1.28,1.238,2.608,2.17,3.969,2.776l-0.645,2.82l-7.004-5.486L367.61,319.525z M361.002,319.722
	c0.068,0.158,10.33,8.151,10.554,8.151c0.463,0,0.869-0.323,0.973-0.775l0.955-4.165c0.294,0.064,0.588,0.121,0.885,0.154
	l0.704,3.962c0.085,0.475,0.501,0.825,0.984,0.825c0.172,0,11.783-6.478,11.783-6.478l1.787,0.612
	c-0.725,0.23-1.429,0.532-2.103,0.908c-2.64,1.471-4.587,3.932-5.413,6.839l-4.949,17.423c-0.033,0.118-0.043,0.242-0.031,0.365
	l-2.331,4.939l-20.972-2.497c0,0-6.355-18.676-6.35-18.891l0.284-10.977L361.002,319.722z M383.106,319.773l2.198,0.755
	l-8.511,4.785l-0.398-2.239C378.672,322.801,380.914,321.65,383.106,319.773z M345.761,320.177l-0.178,6.821l-2.417-6.742
	L345.761,320.177z M453.15,321.873c-0.26,0.007-0.505,0.116-0.686,0.302l-7.042,7.042c-0.196,0.189-0.308,0.448-0.308,0.721
	c0,0.547,0.451,0.999,0.999,0.999c0.273,0,0.532-0.111,0.721-0.308l7.042-7.042c0.193-0.188,0.303-0.446,0.303-0.716
	c0-0.547-0.451-0.999-0.999-0.999C453.17,321.872,453.16,321.872,453.15,321.873z M464.519,321.873c-0.548,0-0.999,0.45-0.999,0.999
	c0,0.271,0.11,0.529,0.305,0.717l7.04,7.04c0.188,0.197,0.448,0.308,0.72,0.308c0.548,0,0.999-0.451,0.999-0.999
	c0-0.273-0.111-0.532-0.307-0.721l-7.04-7.04C465.048,321.982,464.79,321.873,464.519,321.873z M392.899,323.472
	c0.918-0.017,1.842,0.102,2.741,0.358c0.001,0,0.003,0,0.004,0c4.055,1.153,6.391,5.348,5.24,9.403
	c-2.178,7.668-4.874,17.158-5.164,18.179l-16.365-4.648l4.676-16.461c0.681-2.398,2.286-4.426,4.464-5.639
	c1.089-0.607,2.275-0.987,3.49-1.128C392.288,323.499,392.594,323.478,392.899,323.472z M458.835,324.221
	c-0.542,0.009-0.984,0.456-0.984,0.999c0,0.005,0,0.011,0,0.016v9.959c0,0.004,0,0.009,0,0.014c0,0.547,0.451,0.999,0.999,0.999
	c0.548,0,0.999-0.451,0.999-0.999c0-0.005,0-0.01,0-0.014v-9.959c0-0.005,0-0.011,0-0.016c0-0.547-0.45-0.999-0.999-0.999
	C458.845,324.221,458.84,324.221,458.835,324.221z M199.544,332.1c-0.005,0-0.009,0-0.014,0c-0.548,0-0.999,0.45-0.999,0.999
	s0.45,0.999,0.999,0.999c0.005,0,0.009,0,0.014,0h9.959c0.005,0,0.009,0,0.014,0c0.548,0,0.999-0.45,0.999-0.999
	s-0.45-0.999-0.999-0.999c-0.005,0-0.009,0-0.014,0H199.544z M225.572,332.1c-0.005,0-0.01,0-0.014,0c-0.548,0-1,0.45-1,0.999
	s0.451,0.999,1,0.999c0.004,0,0.009,0,0.014,0h9.958c0.005,0,0.01,0,0.015,0c0.547,0,0.999-0.45,0.999-0.999
	s-0.451-0.999-0.999-0.999c-0.005,0-0.01,0-0.015,0H225.572z M211.838,337.771c-0.26,0.007-0.506,0.116-0.687,0.302l-7.042,7.042
	c-0.196,0.189-0.307,0.448-0.307,0.721c0,0.547,0.45,0.999,0.999,0.999c0.272,0,0.532-0.111,0.72-0.308l7.042-7.042
	c0.194-0.188,0.303-0.446,0.303-0.716c0-0.547-0.45-0.999-0.999-0.999C211.857,337.77,211.848,337.77,211.838,337.771z
	 M223.209,337.771c-0.547,0-0.998,0.45-0.998,0.999c0,0.27,0.109,0.527,0.302,0.715l7.042,7.042c0.188,0.197,0.448,0.308,0.72,0.308
	c0.548,0,0.999-0.451,0.999-0.999c0-0.273-0.111-0.532-0.307-0.721l-7.042-7.042C223.737,337.88,223.478,337.771,223.209,337.771z
	 M217.524,340.119c-0.548,0.008-0.993,0.464-0.985,1.013v9.959c0,0.004,0,0.009,0,0.014c0,0.547,0.45,0.999,0.999,0.999
	c0.547,0,0.999-0.451,0.999-0.999c0-0.005,0-0.01,0-0.014v-9.959c0-0.005,0-0.009,0-0.014c0-0.547-0.451-0.999-0.999-0.999
	C217.533,340.119,217.529,340.119,217.524,340.119z M378.801,348.681l14.427,4.099l-6.203,16.361l-0.796,0.764
	c0,0-52.327-9.465-52.533-9.344c-3.109,1.814-6.627,1.095-9.824-0.558c-0.068-0.383-0.342-1.844-0.503-4.065
	c-0.177-2.417-0.064-5.211,0.522-6.623c0.114-0.037,5.622-0.162,5.624-0.162h0.002l45.758,5.397c0.426,0.051,0.84-0.178,1.023-0.565
	L378.801,348.681z M395.156,353.326l0.252,0.072l-1.319,42.833H344.21l0.518-20.123l15.421-5.528
	c0.494-0.176,0.769-0.713,0.624-1.217l-0.628-2.189l26.226,4.787c0.316,0.058,0.64-0.039,0.872-0.262l1.326-1.273
	C388.677,370.324,395.156,353.326,395.156,353.326z M337.069,362.965l20.885,3.81l0.641,2.241l-17.141,6.147L337.069,362.965z
	 M344.196,398.229h49.413l-0.712,108.528c-7.45,2.937-13.639,2.832-18.997,0.338l-1.204-84.246
	c-0.007-0.502-0.392-0.925-0.891-0.979l-6.437-0.687c-0.036-0.003-0.071-0.005-0.106-0.005c-0.544,0-0.994,0.445-0.999,0.991
	l-0.622,85.304c-5.952,2.455-11.811,2.887-18.037-0.564L344.196,398.229z M351.425,399.69c-0.01-0.001-0.02-0.001-0.03-0.001
	c-0.548,0-0.999,0.451-0.999,0.999c0,0.023,0.001,0.046,0.002,0.069c0,0,0.194,5.525-3.191,8.129
	c-0.255,0.188-0.406,0.486-0.406,0.803c0,0.548,0.45,0.999,0.999,0.999c0.228,0,0.448-0.077,0.626-0.22
	c4.44-3.415,3.967-9.822,3.967-9.822C352.371,400.124,351.945,399.705,351.425,399.69z M384.905,399.69
	c-0.509,0.03-0.917,0.446-0.938,0.956c0,0-0.472,6.407,3.967,9.822c0.18,0.15,0.406,0.232,0.64,0.232
	c0.548,0,0.999-0.45,0.999-0.999c0-0.324-0.157-0.628-0.421-0.815c-3.385-2.604-3.191-8.129-3.191-8.129
	c0.001-0.023,0.002-0.047,0.002-0.07c0-0.548-0.45-0.999-0.999-0.999C384.944,399.688,384.925,399.689,384.905,399.69z
	 M366.254,423.286l4.46,0.475l1.14,79.761h-6.186L366.254,423.286z M365.653,505.52h6.226l0.057,13.04
	c0,0.548,0.45,0.999,0.999,0.999h29.843c1.252,0,2.37-0.817,2.75-2.011c0.382-1.195-0.057-2.508-1.079-3.233c0,0-0.001,0-0.002,0
	c-4.124-2.925-8.946-6.348-9.558-6.783c0.001-0.015,0.002-0.03,0.002-0.045l0.008-1.318c22.65,0.645,42.399,2.17,56.445,4.239
	c7.031,1.036,12.64,2.214,16.417,3.459c1.889,0.622,3.321,1.267,4.204,1.863s1.101,1.049,1.101,1.274
	c0,0.132-0.045,0.307-0.291,0.591c-0.246,0.284-0.686,0.635-1.313,0.995c-1.253,0.719-3.232,1.473-5.809,2.188
	c-5.154,1.431-12.711,2.741-22.055,3.839c-18.689,2.196-44.555,3.56-73.105,3.56c-28.549,0-54.415-1.363-73.104-3.56
	c-9.345-1.099-16.901-2.408-22.055-3.839c-2.577-0.715-4.555-1.469-5.809-2.188c-0.627-0.36-1.068-0.713-1.313-0.997
	c-0.246-0.285-0.291-0.457-0.291-0.589c0-0.223,0.208-0.665,1.066-1.25c0.857-0.586,2.251-1.224,4.092-1.84
	c3.682-1.229,9.151-2.394,16.018-3.424c13.564-2.033,32.608-3.548,54.503-4.241l0.005,0.47c-0.093,0.07-5.946,4.444-10.251,7.661
	c-0.972,0.725-1.37,2-0.989,3.148c0.382,1.15,1.464,1.932,2.676,1.932h29.663c0.548,0,0.999-0.451,0.999-0.999L365.653,505.52z
	 M344.429,508.596c6.592,3.73,13.091,3.424,19.275,1.046v7.82H335.04c-0.359,0-0.667-0.223-0.78-0.562
	c-0.113-0.341-0.001-0.704,0.287-0.919C338.696,512.881,343.941,508.961,344.429,508.596z M393.237,508.809
	c0.109,0.077,5.717,4.057,10.056,7.135c0.32,0.227,0.452,0.624,0.334,0.997c-0.119,0.374-0.456,0.62-0.848,0.62h-28.844v-8.216
	C379.513,511.643,385.954,511.595,393.237,508.809z"></path>
</svg>