<?xml version="1.0" standalone="no"?>
<svg version="1.1" id="Layer_1" xmlns="http://www.w3.org/2000/svg" xmlns:xlink="http://www.w3.org/1999/xlink" x="0px" y="0px" width="595.279px" height="595.281px" viewBox="0 0 595.279 595.281" enable-background="new 0 0 595.279 595.281" xml:space="preserve">
<path id="color_x5F_2" fill="#dbdbdb" d="M364.7,398.007c6.896-3.664,15.872-8.732,24.644-14.561
	C382.43,389.617,373.12,394.068,364.7,398.007z M290.129,140.419c0,17.494,0,34.986,0,52.48l0.301,11.074
	c4.072-4.076,7.637-8.844,10.833-13.658c0.029-0.045,0.068-0.086,0.114-0.125c-0.291-0.504,0.99-1.545,1.895-1.545
	c26.667,0,53.335,0,80,0c0.646,0,0.874,0.197,0.853,0.461c0.02,0.02,0.042,0.033,0.057,0.057
	c6.166,9.32,14.106,20.371,24.271,26.473c4.801,1.84,10.889,3.641,14.202,4.58c0.439,0.023,0.881,0.047,1.325,0.051
	c0.798-0.686,2.58-0.686,2.561,0.512c-0.653,38.389-1.306,76.777-1.959,115.166c-0.002,0.129-0.038,0.244-0.09,0.354
	c-1.96,6.871-5.263,13.352-9.126,19.436c-3.293,6.211-7.779,12.893-13.722,18.475c-3.211,3.797-6.621,7.428-10.328,10.664
	c-7.813,6.822-18.36,11.938-27.797,16.123c-7.607,3.375-15.465,5.83-23.503,7.949c-0.362,0.096-0.673,0.082-0.927,0.002
	c-0.061-0.01-0.122-0.02-0.181-0.037c-15.938-5.166-30.892-13.859-44.221-23.906c-1.594-1.201-3.103-2.469-4.559-3.783
	c0,12.984,0,25.969,0,38.953c51.493,0,102.985,0,154.479,0c0-93.252,0-186.502,0-279.754
	C393.115,140.419,341.622,140.419,290.129,140.419z M203.495,361.712c-11.016-7.953-24.435-4.568-36.946-7.566
	c-0.918-0.221,1.646-1.361,2.363-1.188c3.01,0.721,6.14,1.043,9.306,1.242c-1.438-5.439-13.072-7.227-17.465-8.242
	c-4.311-1-8.665-1.852-13.042-2.521c-0.019,2.84-0.331,5.625-1.327,8.063c-2.63,6.434-5.397,13.611-5.204,20.666
	c0.376,13.713,2.716,27.346,4.884,40.863c2.264,14.117,4.854,28.301,5.762,42.588c0.4,6.305,1.12,14.418-1.16,20.914v0.449
	l-0.271,0.314c-0.596,1.5-1.361,2.902-2.35,4.164c-0.024,0.031-0.06,0.063-0.1,0.094h75.785l-0.163-1.104
	c-0.646,0.104-1.249-0.029-1.286-0.51c-1.167-15.039-5.801-29.588-6.006-44.729c-0.005-0.375,0.362-0.688,0.834-0.879l-1.784-2.072
	c-4.929-4.744-9.723-9.633-14.429-14.596c-0.271-0.283-0.217-0.58,0.004-0.838c-1.159,0.322-2.321,0.631-3.488,0.906
	c-1.322,0.313-1.85-0.4-1.252-0.941c-0.111-0.041-0.208-0.098-0.277-0.178c-5.128-5.979-6.753-14.436-13-19.5
	c-0.769-0.623,1.912-1.758,2.694-1.123c6.258,5.074,7.874,13.523,13,19.5c0.131,0.152,0.145,0.313,0.077,0.465
	c4.512-1.154,8.979-2.635,13.259-4.436c6.512-2.736,16.098-6.877,17.371-14.773c0.036-0.225,0.232-0.422,0.502-0.582
	C222.104,384.156,215.311,370.244,203.495,361.712z M180.482,354.316c-0.007,0.004-0.016,0.008-0.022,0.01
	c0.021,0.002,0.043,0.002,0.064,0.004C180.509,354.326,180.496,354.322,180.482,354.316z"></path>
<path id="color_x5F_1" d="M180.229,302.166c0.741,1.051,1.463,2.135,1.776,3.4c0.351,1.408-2.549,2.18-2.896,0.775
	c-0.271-1.088-0.889-1.971-1.525-2.873C176.685,302.195,179.434,301.037,180.229,302.166z M172.013,300.054
	c-0.641,1.537,2.276,1.512,2.771,0.328c0.553-1.326,1.396-2.551,2.88-2.842c0.575-0.111,1.364-0.703,1.185-1.379
	c-0.195-0.729-1.141-0.713-1.715-0.602C174.735,296.031,172.931,297.851,172.013,300.054z M182.241,321.91
	c2.116,0.801,4.054,0.688,6.149-0.104c0.583-0.221,1.071-1.004,0.662-1.576c-0.462-0.646-1.354-0.502-1.98-0.264
	c-1.104,0.418-2.099,0.305-3.185-0.105c-0.69-0.262-1.584-0.027-2.049,0.551C181.405,320.949,181.587,321.662,182.241,321.91z
	 M301.73,340.408c-0.127-0.129-0.207-0.297-0.207-0.52c0-19.443,0-38.889,0-58.332c0-0.18,0.078-0.342,0.201-0.486
	c0.094-0.557,1.119-1.346,1.924-1.346c2.982,0,5.967,0,8.949,0c-0.011-12.004-0.19-25.514,5.505-36.371
	c5.543-10.564,16.372-15.357,28.117-13.979c25.297,2.971,24.627,30.65,24.563,50.35c2.276,0,4.554,0,6.831,0
	c0.859-0.447,2.266-0.416,2.266,0.543c0,19.777,0,39.555,0,59.334c0,0.299-0.208,0.555-0.509,0.748
	c-0.396,0.354-0.964,0.645-1.452,0.645c-25.111,0-50.223,0-75.334,0C301.859,340.994,301.648,340.734,301.73,340.408z
	 M315.53,279.724c2.543,0,5.086,0,7.629,0c-0.03-14.246-0.336-44.83,21.262-41.756c18.334,2.611,17.909,27.543,17.882,41.756
	c1.853,0,3.702,0,5.554,0c0.095-17.254,1.309-45.508-21.475-48.182c-13.021-1.529-23.391,4.236-27.486,16.84
	C315.624,258.443,315.535,269.236,315.53,279.724z M359.368,279.724c0.048-11.963,0.719-37.279-14.975-39.514
	c-19.568-2.787-18.353,26.604-18.301,39.514C337.185,279.724,348.277,279.724,359.368,279.724z M304.441,281.609
	c0,19.166,0,38.332,0,57.5c24.174,0,48.348,0,72.521,0c0-19.166,0-38.334,0-57.5c-2.428,0-4.855,0-7.284,0
	c-0.414,0.115-0.865,0.125-1.218,0c-18.011,0-36.021,0-54.033,0c-0.413,0.115-0.864,0.125-1.217,0
	C310.287,281.609,307.364,281.609,304.441,281.609z M333.129,321.691c-0.038-0.09-0.055-0.195-0.027-0.322
	c0.899-4.248,1.8-8.494,2.697-12.74c0.009-0.045,0.029-0.084,0.048-0.127c-6.331-2.543,0.375-10.018,4.848-10.57
	c2.811-0.348,5.677,0.906,6.911,3.572c1.194,2.578,0.357,4.947-1.837,6.391c0.033,0.055,0.059,0.115,0.072,0.182
	c0.898,4.248,1.797,8.494,2.695,12.742c0.117,0.557-0.523,1.018-1.233,1.213c-0.371,0.227-0.806,0.393-1.15,0.393
	c-4.119,0-8.237,0-12.355,0C332.896,322.423,332.832,322.07,333.129,321.691z M338.51,307.347c0.33,0.115,0.308,0.309,0.094,0.512
	c0.098,0.109,0.145,0.254,0.104,0.441c-0.88,4.152-1.759,8.307-2.638,12.459c3.131,0,6.262,0,9.393,0
	c-0.84-3.969-1.68-7.938-2.52-11.906c-0.019-0.084-0.015-0.162,0-0.24c-0.539-0.248,0.01-0.781,0.341-0.947
	c1.943-0.969,2.48-3.102,1.585-5.039c-0.728-1.568-2.647-3.719-4.631-3.316c-1.658,0.336-3.314,2.346-3.827,3.875
	C335.739,305.191,336.517,306.65,338.51,307.347z M474.13,434.982c-3.604,5.791-9.488,7.441-16.023,7.287
	c-1.963-0.047-0.305-2.041,1.028-2.01c16.53,0.391,16.216-18.566,16.143-31.215c0-0.004-0.001-0.006-0.001-0.01
	c0-0.068,0-0.141,0-0.211c-0.005-0.723-0.008-1.428-0.007-2.102c0-0.014,0.006-0.025,0.007-0.039c0-85.875,0-171.752,0-257.629
	c-0.001-0.014-0.007-0.025-0.007-0.041c-0.119-13.725-3.716-30.379-18.028-33.328c1.935,1.207,3.566,2.922,4.721,5.303
	c4.042,8.348,3.549,18.744,3.568,27.775c0,0.014-0.005,0.025-0.006,0.039c0,85.875,0,171.748,0,257.623
	c0.001,0.018,0.006,0.029,0.006,0.047c-0.02,8.863,0.86,20.59-4.066,28.508c-3.604,5.793-9.487,7.443-16.023,7.289
	c-0.262-0.008-0.454-0.049-0.598-0.115c-50.779,0-101.559,0-152.339,0c-0.104,0.021-0.214,0.037-0.329,0.041
	c-5.811,0.184-12.129-1.068-15.553-6.289c-4.437-6.764-4.503-15.354-4.19-23.164c0.007-0.162,0.078-0.311,0.187-0.443
	c0-16.785,0-33.57,0-50.355c0-0.242,0.259-0.445,0.619-0.604c-0.798-1.305-1.502-2.646-2.082-4.031
	c-0.748,0.918-1.472,1.814-2.093,2.701c-0.146,0.209-0.539,0.389-0.983,0.506c-4.569,15.887-5.961,32.623-7.394,49.016
	c-1.022,11.695-4.396,28.875-16.762,34.16c-9.498,4.061-17.863-1.436-24.703-7.736c0.399,14.598,4.834,28.68,5.961,43.209
	c0.053,0.664-0.813,1.156-1.61,1.283c-0.646,0.105-1.249-0.029-1.286-0.508c-1.167-15.041-5.801-29.59-6.006-44.73
	c-0.005-0.375,0.362-0.688,0.834-0.879c0.093-0.037,0.188-0.07,0.288-0.1c-0.693-0.654-1.385-1.313-2.072-1.973
	c-4.929-4.744-9.723-9.635-14.429-14.596c-0.271-0.283-0.217-0.582,0.004-0.838c-1.159,0.322-2.321,0.629-3.488,0.906
	c-1.322,0.313-1.85-0.4-1.252-0.941c-0.111-0.041-0.208-0.098-0.277-0.178c-5.128-5.979-6.753-14.436-13-19.5
	c-0.769-0.625,1.912-1.758,2.694-1.123c6.258,5.074,7.874,13.523,13,19.5c0.131,0.152,0.145,0.313,0.077,0.465
	c4.512-1.154,8.979-2.637,13.259-4.436c6.512-2.736,16.098-6.877,17.371-14.773c0.036-0.225,0.232-0.424,0.502-0.582
	c-7.685-12.008-14.478-25.92-26.292-34.451c-11.016-7.953-24.435-4.568-36.946-7.566c-0.918-0.221,1.646-1.359,2.363-1.188
	c3.01,0.721,6.14,1.043,9.306,1.244c-1.438-5.441-13.072-7.229-17.465-8.244c-4.311-1-8.665-1.852-13.042-2.521
	c-0.019,2.842-0.331,5.625-1.327,8.063c-2.63,6.434-5.397,13.613-5.205,20.666c0.377,13.713,2.717,27.346,4.885,40.863
	c2.264,14.117,4.854,28.301,5.762,42.588c0.4,6.305,1.12,14.418-1.16,20.916c-0.089,0.254-0.172,0.512-0.271,0.762
	c-0.596,1.5-1.361,2.904-2.35,4.164c-0.024,0.033-0.06,0.063-0.1,0.096c-0.65,0.502-3.099,0.818-2.531,0.094
	c5.751-7.332,4.018-20.168,3.243-28.725c-1.27-14.029-3.719-27.922-5.925-41.824c-2.014-12.688-5.246-26.537-4.441-39.453
	c0.407-6.531,2.448-12.846,4.911-18.871c1.971-4.82,1.6-10.555,1.233-15.852c-0.414,0.008-0.802-0.105-1.033-0.398
	c-3.581-4.51-7.908-9.293-11.708-14.336l-1.631-1.301c0,0,0.026-0.303-0.138-1.119c-4.496-6.4-7.844-13.207-7.556-20.396
	c-0.361-3.486,0.636-6.053,1.807-7.795c0.61-1.43,1.366-2.871,2.326-4.328c4.787-7.266,12.809-12.18,20.593-15.691
	c8.31-3.748,17.231-6.855,26.429-7.063c0.205-0.004,0.375,0.02,0.526,0.057c3.408-0.008,7.741,0.941,9.228,4.363
	c2.299,5.301-2.485,11.193-6.426,15.275c0.128,0.049,0.241,0.107,0.338,0.178c0.021,0,0.042-0.002,0.063,0
	c2.881,0.322,4.357,3.373,5.601,5.65c2.444,4.48,4.749,9.012,8.156,12.859c2.112-0.422,4.9-0.586,6.153,1.043
	c1.654,2.148-1.053,4.596-2.617,5.826c-0.367,0.289-0.854,0.477-1.343,0.543c0.327,7.727,4.597,15.865-2.02,22.063
	c-2.953,2.768-6.843,3.475-10.525,4.729c-5.195,1.766-5.958,5.895-3.813,10.42c0.229,0.479-0.165,0.912-0.732,1.154
	c2.558,1.211,4.617,2.814,5.065,5.012c0.049,0.232-0.265,0.469-0.697,0.652c-0.008,0.002-0.016,0.008-0.022,0.01
	c0.021,0.002,0.043,0.002,0.064,0.004c9.079,0.447,18.29,0.438,25.692,6.359c11.621,9.301,18.474,22.238,26.368,34.543
	c1.704-4.074,4.388-7.727,7.187-11.352c5.533-7.172,8.977-15.146,12.927-23.211c-1.233-4.238-3.738-7.971-4.915-12.232
	c-0.018-0.063-0.021-0.123-0.021-0.184c-0.486-0.033-0.974-0.07-1.462-0.084c-0.381-0.01-0.477-0.102-0.403-0.229
	c-0.075-0.029-0.113-0.068-0.09-0.121c0.134-0.293,0.268-0.588,0.4-0.883c-0.113-0.063-0.217-0.139-0.299-0.24
	c-0.995-1.24-2.076-3.059-1.274-4.682c0.585-1.182,1.635-1.914,2.798-2.43c-0.271-0.951-0.283-1.945,0.325-2.771
	c0.631-0.854,1.476-1.406,2.415-1.752c-0.298-0.934-0.382-1.934,0.052-2.82c0.704-1.441,2.144-2.113,3.667-2.262
	c1.964-4.332,3.926-8.662,5.889-12.992c-0.311-0.15-0.523-0.416-0.516-0.83c0.653-33.5,1.308-67,1.959-100.5
	c0.026-1.322,2.968-1.746,2.938-0.217c0,0.021-0.001,0.039-0.001,0.061c9.643,0.379,17.477-3.551,24.035-9.41
	c-0.533-0.016-0.97-0.227-0.97-0.719c0-21.883,0-43.766,0-65.65c0-0.682,1.325-1.176,2.187-1.031c52.112,0,104.226,0,156.339,0
	c0.436-0.117,0.907-0.127,1.257,0.008c0.84,0.033,0.857,0.426,0.518,0.828c0,93.586,0,187.17,0,280.754
	c0.313,0.154,0.243,0.455-0.023,0.758c-0.179,0.719-1.566,1.145-2.354,0.857c-52.18,0-104.357,0-156.538,0
	c-0.264,0.037-0.521,0.035-0.743-0.016c-0.433-0.045-0.595-0.201-0.578-0.408c-0.036-0.08-0.061-0.166-0.061-0.27
	c0-14.248,0-28.496,0-42.744c-2.241-2.25-4.356-4.633-6.413-7.131c-1.741-2.113-3.599-4.311-5.299-6.613c0,15.705,0,31.412,0,47.117
	c0,0.129-0.078,0.248-0.202,0.354c0.024,0.08,0.041,0.166,0.036,0.268c-0.501,12.492,1.246,28.379,17.152,27.881
	c0.203-0.006,0.371,0.012,0.52,0.041c50.944,0,101.892,0,152.836,0c0.203-0.074,0.411-0.119,0.613-0.115
	c16.53,0.393,16.214-18.564,16.141-31.215c0-0.004-0.002-0.006-0.002-0.008c0-0.07,0-0.143,0-0.213
	c-0.004-0.723-0.007-1.428-0.006-2.102c0-0.014,0.005-0.025,0.006-0.039c0-85.875,0-171.75,0-257.627
	c-0.001-0.016-0.006-0.025-0.006-0.043c-0.026-12.797,1.249-34.213-16.68-33.787c-0.307,0.01-0.543-0.039-0.729-0.115
	c-50.643,0-101.283,0-151.924,0c-0.137,0.031-0.271,0.053-0.401,0.049c-15.458-0.486-16.832,15.322-16.354,27.342
	c0.017,0.404-0.273,0.744-0.675,0.982c0.208,0.115,0.346,0.297,0.346,0.568c0,22.889,0,45.777,0,68.666
	c0,1.01-2.904,1.611-2.904,0.338c0-22.889,0-45.777,0-68.666c0-0.281,0.229-0.527,0.554-0.715c-0.126-0.094-0.211-0.223-0.218-0.4
	c-0.312-7.793-0.527-17.742,4.829-24.137c3.927-4.688,9.579-6.041,15.485-5.855c0.153,0.006,0.276,0.023,0.387,0.049
	c50.433,0,100.864,0,151.297,0c0.179-0.066,0.376-0.111,0.594-0.115c1.705-0.041,3.396,0.053,5.021,0.32
	c0.254-0.186,0.588-0.313,0.979-0.32c20.337-0.479,25.838,18.35,25.988,35.547c0,0.016-0.006,0.027-0.007,0.043
	c0,85.873,0,171.746,0,257.621c0.001,0.018,0.007,0.029,0.007,0.045C478.179,415.337,479.058,427.064,474.13,434.982z
	 M176.208,286.31c-0.337-0.037-0.56-0.127-0.702-0.244c-0.37,0.166-0.729,0.346-1.085,0.533c-0.081,0.041-0.162,0.084-0.242,0.127
	c-0.338,0.186-0.671,0.377-0.998,0.58l-3.47,2.912l-1.074,0.426c-2.414,1.938-4.827,3.887-7.742,5.086
	c5.869,4.957,5.013,12.596,4.954,19.645c-0.009,0.916-2.575,1.512-2.871,0.555c-0.149,0.004-0.299,0-0.439-0.023
	c-1.894-0.346-4.019-0.607-4.89,1.527c-0.549,1.35-0.707,3.014-0.239,4.418c0.389,1.168,1.037,2.318,1.992,3.123
	c0.108,0.094,0.223,0.18,0.34,0.262c0.099,0.068,0.195,0.141,0.299,0.201c2.155,1.271,3.312,0.039,4.597-1.818
	c0.479-0.691,3.032-0.781,2.854-0.523c-1.646,2.377-4.372,4.455-7.458,4.168c-0.255-0.021-0.504-0.074-0.751-0.129
	c-2.447,4.574-7.373,6.822-11.938,9.016c0.146,1.891,0.305,3.873,0.354,5.854c0.086-0.01,0.165-0.014,0.225-0.006
	c5.765,0.795,11.534,1.877,17.168,3.326c1.985,0.512,5.408,1.197,8.599,2.336c-2.525-6.014,0.313-10.611,6.472-12.445
	c6.638-1.977,12.875-4.912,11.812-12.895c-0.535-4.012-1.567-7.912-1.703-11.973c-0.027-0.807,1.252-1.295,2.128-1.105
	c1.029-0.822,3.346-2.844,2.067-4.223c-1.138-1.227-3.129-0.869-4.556-0.471c-0.371,0.104-1.473,0.297-1.626-0.273
	c-0.022-0.084-0.014-0.16,0.008-0.234c-2.754-3.125-4.82-6.689-6.781-10.35C180.573,291.941,178.589,286.578,176.208,286.31z
	 M161.95,293.3l-2.885,1.145c0,0,0.018,0.031,0.044,0.072C160.11,294.201,161.056,293.792,161.95,293.3z M290.129,204.277
	c0.103-0.1,0.201-0.203,0.301-0.303c4.072-4.076,7.637-8.844,10.833-13.658c0.029-0.045,0.068-0.086,0.114-0.125
	c-0.291-0.504,0.99-1.545,1.895-1.545c26.667,0,53.335,0,80,0c0.646,0,0.874,0.197,0.853,0.461c0.02,0.02,0.042,0.033,0.057,0.057
	c6.166,9.32,14.106,20.369,24.271,26.473c4.319,2.594,9.043,4.289,14.202,4.58c0.439,0.023,0.881,0.047,1.325,0.051
	c0.798-0.686,2.58-0.686,2.561,0.512c-0.653,38.389-1.306,76.777-1.959,115.166c-0.002,0.102-0.036,0.191-0.071,0.281
	c-0.002,0.008-0.002,0.016-0.004,0.023c-0.005,0.018-0.01,0.031-0.015,0.049c-1.96,6.871-5.263,13.352-9.126,19.436
	c-1.896,2.982-3.923,5.871-5.997,8.662c-2.46,3.311-5.022,6.617-7.725,9.813c-3.211,3.797-6.621,7.428-10.328,10.664
	c-7.813,6.822-18.36,11.938-27.797,16.123c-7.607,3.375-15.465,5.83-23.503,7.949c-0.363,0.096-0.673,0.082-0.927,0.002
	c-0.062-0.01-0.122-0.02-0.181-0.037c-15.938-5.166-30.892-13.859-44.221-23.906c-1.594-1.201-3.103-2.469-4.559-3.783
	c0,12.984,0,25.969,0,38.953c51.493,0,102.985,0,154.479,0c0-93.252,0-186.502,0-279.754c-51.492,0-102.984,0-154.479,0
	c0,17.494,0,34.988,0,52.482C290.129,196.693,290.129,200.486,290.129,204.277z M254.168,335.119
	c0.028,0.084,0.042,0.18,0.023,0.293c-0.044,0.268-0.226,0.494-0.461,0.674c-1.645,3.627-3.288,7.256-4.933,10.883
	c4.601,0.215,9.127,1.363,13.68,2.076c0.326-1.348,0.758-2.766,1.713-3.688c-2.771-3.268-3.767-7.059-1.897-11.086
	c0.362-0.781,2.091-1.227,2.794-0.75c1.087,0.738,2.481,1.652,3.922,2.695c2.261-5.873,6.284-10.883,8.17-16.939
	c-4.833-1.045-9.807-2.061-14.76-2.367C259.668,322.978,256.918,329.048,254.168,335.119z M271.724,315.957
	c0.002,0.143-0.034,0.271-0.089,0.391c2.689,0.459,5.362,1.018,7.996,1.588c0.34,0.074,0.486,0.193,0.51,0.33
	c0.031,0.049,0.047,0.105,0.025,0.176c-2.042,6.93-6.959,12.449-9,19.377c-0.004,0.014-0.014,0.023-0.019,0.037
	c2.756,2.254,5.215,4.939,5.527,7.785c14.617,24.131,38.942,43.238,65.816,51.846c32.129-10.541,59.894-34.938,70.172-67.684
	c0.035-0.111,0.134-0.213,0.267-0.305c-0.189-0.16-0.311-0.387-0.306-0.697c0.585-34.516,1.169-69.031,1.754-103.547
	c-17.091,0.332-28.845-14.262-37.649-27.297c-23.449,0-46.897,0-70.347,0c-8.107,11.885-18.341,22.422-32.753,25.217
	C273.95,254.119,271.282,285.009,271.724,315.957z M250.801,336.798c-0.256,0.145-0.456,0.355-0.527,0.689
	c-0.043,0.201-0.057,0.398-0.055,0.596C250.412,337.656,250.607,337.226,250.801,336.798z M247.576,343.916
	c0.317-0.701,0.635-1.402,0.953-2.105c-0.05-0.043-0.096-0.092-0.133-0.148c-0.03-0.049-0.06-0.102-0.089-0.15
	c-0.469,0.23-0.877,0.549-0.948,1.006C247.282,343.017,247.385,343.48,247.576,343.916z M231.253,399.443
	c0.012-0.049,0.02-0.098,0.03-0.146c-0.022,0.049-0.05,0.094-0.073,0.143C231.225,399.441,231.239,399.441,231.253,399.443z
	 M272.988,344.462c-2.146-3.406-5.286-6.088-8.557-8.441c-0.649,3.072,0.398,5.936,2.655,8.502c0.272,0.311-0.142,0.686-0.729,0.945
	c-0.705,0.814-1.087,3.396-1.293,4.242c-0.161,0.664-1.841,0.928-2.364,0.865c-3.917-0.467-7.805-1.416-11.723-1.975
	c1.261,3.877,3.479,7.375,4.619,11.301c0.161,0.195,0.199,0.469,0.022,0.828c-3.371,6.859-6.126,14.258-10.697,20.449
	c-4.741,6.422-10.293,12.406-11.124,20.588c1.268,1.268,2.534,2.533,3.801,3.801c0.395,0.396-2.229,1.477-2.736,0.967
	c-0.813-0.813-1.626-1.627-2.439-2.439c-0.81,0.17-1.699-0.084-1.662-0.939c0.011-0.227,0.034-0.447,0.052-0.672
	c-0.29-0.289-0.581-0.58-0.871-0.871c-3.465,4.855-10.027,8.035-15.018,10.205c-3.837,1.67-7.796,3.145-11.82,4.367
	c0.182,0.049,0.342,0.129,0.461,0.254c4.537,4.783,9.153,9.502,13.892,14.088c6.787,6.568,17.934,18.221,27.805,10.027
	c11.507-9.553,11.954-25.223,13.11-38.895c1.214-14.344,3.164-29.188,7.398-42.973c0.246-0.799,1.743-1.217,2.508-0.98
	C271.483,353.839,275.775,348.89,272.988,344.462z M273.68,355.664c2.111,5.654,6.723,10.785,10.581,15.316
	c4.318,5.068,8.759,9.492,14.159,13.404c12.753,9.24,26.576,17.34,41.588,22.293c7.98-2.119,15.84-4.533,23.34-8.039
	c0.447-0.209,0.899-0.42,1.353-0.633c8.421-3.938,17.729-8.389,24.644-14.561c0.188-0.168,0.384-0.332,0.569-0.504
	c13.338-12.33,26.638-29.205,31.729-46.854c0.651-38.246,1.302-76.492,1.952-114.738c-19.138,0.492-32.279-16.314-41.968-30.895
	c-25.988,0-51.976,0-77.962,0c-9.435,13.994-21.969,26.105-39.53,26.209c-0.64,32.818-1.279,65.637-1.919,98.453
	c0.563-0.045,1.012,0.006,0.94,0.162c-0.011,0.025-0.022,0.049-0.033,0.074c1.885,0.096,3.771,0.287,5.654,0.549
	c-0.423-30.779,2.213-61.504,1.909-92.281c-0.626,0.021-0.439-0.246-0.003-0.535c-0.002-0.184-0.001-0.365-0.003-0.549
	c-0.017-1.332,2.722-1.738,2.925-0.336c13.722-2.342,23.352-13.875,30.696-24.898c0.115-0.172,0.354-0.311,0.648-0.416
	c0.399-0.393,1.05-0.74,1.572-0.74c23.949,0,47.897,0,71.847,0c0.646,0,0.874,0.197,0.852,0.463c0.02,0.018,0.042,0.033,0.058,0.055
	c8.128,12.098,19.527,27.195,35.489,27.494c0.799-0.682,2.574-0.68,2.556,0.516c-0.587,34.637-1.173,69.273-1.761,103.912
	c-0.003,0.186-0.066,0.35-0.169,0.498c0.105,0.049,0.16,0.117,0.131,0.215c-10.528,33.543-39.078,57.789-71.741,68.77
	c0.345,0.613-1.479,1.533-2.267,1.287c-0.296-0.094-0.59-0.193-0.886-0.289c-0.883,0.213-1.272-0.016-1.067-0.346
	c-25.538-8.477-48.78-26.146-63.537-48.709c-0.69,1.768-1.813,3.43-3.041,5.018C273.298,355.132,273.558,355.333,273.68,355.664z
	 M117.031,229.037c0-11.311,9.202-20.512,20.513-20.512h84.375c11.312,0,20.514,9.201,20.514,20.512
	c0,11.313-9.202,20.516-20.514,20.516h-84.375C126.233,249.552,117.031,240.349,117.031,229.037z M120.031,229.037
	c0,9.658,7.855,17.516,17.513,17.516h84.375c9.657,0,17.514-7.857,17.514-17.516c0-9.654-7.856-17.512-17.514-17.512h-84.375
	C127.887,211.525,120.031,219.382,120.031,229.037z M139.95,230.892c2.617,0,5.235,0,7.852,0c-1.961,1.961-3.921,3.92-5.882,5.881
	c-0.718,0.719,2.107,0.436,2.652-0.111c1.238-1.236,2.476-2.475,3.714-3.713c0,2.199,0,4.398,0,6.6c0,1.42,2.922,0.902,2.922-0.271
	c0-1.889,0-3.777,0-5.666c1.234,1.234,2.469,2.469,3.703,3.703c0.799,0.799,3.549-0.316,2.676-1.189
	c-1.744-1.744-3.487-3.486-5.231-5.23c1.995,0,3.988,0,5.982,0c0.891,0,3.147-1.352,1.206-1.352c-2.617,0-5.234,0-7.852,0
	c1.961-1.961,3.921-3.92,5.882-5.881c0.718-0.719-2.107-0.434-2.652,0.111c-1.237,1.238-2.476,2.475-3.714,3.713
	c0-2.199,0-4.396,0-6.598c0-1.422-2.922-0.904-2.922,0.27c0,1.889,0,3.777,0,5.666c-1.234-1.234-2.468-2.469-3.703-3.703
	c-0.799-0.799-3.549,0.316-2.676,1.189c1.744,1.744,3.488,3.488,5.232,5.23c-1.995,0-3.989,0-5.984,0
	C140.267,229.542,138.009,230.892,139.95,230.892z M169.108,230.892c2.617,0,5.233,0,7.852,0c-1.961,1.961-3.921,3.92-5.882,5.881
	c-0.718,0.719,2.107,0.436,2.652-0.111c1.237-1.236,2.476-2.475,3.714-3.713c0,2.199,0,4.398,0,6.6c0,1.42,2.922,0.902,2.922-0.271
	c0-1.889,0-3.775,0-5.666c1.234,1.234,2.468,2.469,3.703,3.703c0.799,0.799,3.549-0.316,2.676-1.189
	c-1.744-1.744-3.488-3.486-5.232-5.23c1.995,0,3.989,0,5.984,0c0.89,0,3.147-1.352,1.206-1.352c-2.617,0-5.235,0-7.852,0
	c1.96-1.961,3.921-3.92,5.882-5.881c0.718-0.719-2.107-0.434-2.652,0.111c-1.238,1.236-2.476,2.475-3.714,3.713
	c0-2.199,0-4.398,0-6.598c0-1.422-2.922-0.904-2.922,0.27c0,1.889,0,3.777,0,5.666c-1.234-1.234-2.468-2.469-3.703-3.703
	c-0.799-0.799-3.549,0.316-2.676,1.189c1.744,1.744,3.487,3.488,5.231,5.23c-1.995,0-3.988,0-5.983,0
	C169.424,229.542,167.167,230.892,169.108,230.892z M198.267,230.892c2.616,0,5.233,0,7.852,0c-1.961,1.961-3.921,3.92-5.882,5.881
	c-0.718,0.719,2.106,0.436,2.651-0.111c1.238-1.236,2.478-2.477,3.716-3.715c0,2.201,0,4.4,0,6.602c0,1.42,2.922,0.902,2.922-0.271
	c0-1.889,0-3.775,0-5.666c1.233,1.234,2.468,2.469,3.703,3.703c0.799,0.799,3.549-0.316,2.676-1.189
	c-1.744-1.744-3.488-3.486-5.232-5.23c1.995,0,3.989,0,5.984,0c0.89,0,3.146-1.352,1.206-1.352c-2.618,0-5.235,0-7.854,0
	c1.961-1.961,3.921-3.92,5.883-5.881c0.718-0.719-2.107-0.434-2.652,0.111c-1.238,1.236-2.477,2.475-3.714,3.713
	c0-2.199,0-4.398,0-6.598c0-1.422-2.922-0.904-2.922,0.27c0,1.889,0,3.777,0,5.666c-1.234-1.232-2.47-2.469-3.703-3.703
	c-0.799-0.799-3.549,0.316-2.676,1.189c1.743,1.744,3.487,3.488,5.231,5.23c-1.995,0-3.989,0-5.982,0
	C198.582,229.542,196.325,230.892,198.267,230.892z" fill="#d4d3d3"></path>
</svg>